<svg width="96" height="96" viewBox="0 0 96 96" xmlns="http://www.w3.org/2000/svg" xmlns:xlink="http://www.w3.org/1999/xlink">
    <g id="Group-copy">
        <g id="Group">
            <path id="Path" fill="#064487" stroke="none" d="M 47.951889 78.889061 C 30.738974 78.923164 16.760233 64.982315 16.739391 47.761822 C 16.720446 30.480705 30.46804 16.657326 47.81926 16.513329 C 65.039757 16.371231 79.206062 30.469337 79.19091 47.735302 C 79.175751 64.910324 65.193222 78.854958 47.951889 78.889061 Z M 76.049576 47.674671 C 76.032524 32.104424 63.469086 19.558037 47.913994 19.576988 C 32.413849 19.595932 19.751888 32.252205 19.763256 47.716354 C 19.77273 63.176716 32.472584 75.8311 47.957573 75.810257 C 63.533504 75.791306 76.066628 63.241131 76.049576 47.674671 Z"/>
            <path id="path1" fill="#005ec4" stroke="none" d="M 27.33239 19.726662 C 27.296392 23.798271 23.925808 27.129066 19.842833 27.121483 C 15.697333 27.113907 12.366535 23.697845 12.42148 19.512566 C 12.47453 15.444748 15.856483 12.204895 20.011456 12.237099 C 24.153164 12.27121 27.368389 15.560318 27.33239 19.726662 Z M 19.780308 24.775902 C 22.641233 24.815697 25.043652 22.470116 25.047441 19.63382 C 25.051231 16.854362 22.720808 14.531525 19.926197 14.52774 C 17.1619 14.523949 14.789795 16.842995 14.732955 19.6054 C 14.672326 22.375381 16.980013 24.738014 19.780308 24.775902 Z"/>
            <path id="path2" fill="#1283ff" stroke="none" d="M 15.733333 47.63678 C 15.763646 51.708385 12.465058 55.088444 8.374503 55.177494 C 4.327527 55.264645 0.790212 51.761436 0.799685 47.674671 C 0.809158 43.637169 4.206269 40.240059 8.257035 40.215427 C 12.290749 40.190796 15.703017 43.576542 15.733333 47.63678 Z M 13.387753 47.712559 C 13.393436 44.859215 11.142591 42.59322 8.294929 42.585632 C 5.430214 42.57806 3.186947 44.813744 3.179368 47.678459 C 3.173684 50.548859 5.3999 52.794018 8.260825 52.803493 C 11.112276 52.812965 13.382069 50.558331 13.387753 47.712559 Z"/>
            <path id="path3" fill="#70b2f9" stroke="none" d="M 27.33239 75.795097 C 27.326706 79.940598 24.058432 83.169083 19.88262 83.153923 C 15.693543 83.138763 12.39306 79.794708 12.42148 75.592369 C 12.448006 71.56813 15.90764 68.214592 19.975458 68.273331 C 24.047064 68.332062 27.338074 71.695068 27.33239 75.795097 Z M 20.079662 70.639748 C 17.250948 70.51281 14.863687 72.678391 14.732955 75.488167 C 14.604118 78.275192 16.928858 80.749611 19.782204 80.859497 C 22.476398 80.963707 24.895868 78.756439 25.043652 76.060349 C 25.199013 73.218369 22.955746 70.768585 20.079662 70.639748 Z"/>
            <path id="path4" fill="#c5e1ff" stroke="none" d="M 40.464222 87.344894 C 40.464222 83.241074 43.768497 79.940598 47.891258 79.927338 C 52.089806 79.91407 55.431976 83.246765 55.409241 87.422577 C 55.388397 91.465759 51.976128 94.806038 47.889366 94.783302 C 43.793129 94.762459 40.464222 91.427864 40.464222 87.344894 Z M 42.762436 87.36763 C 42.771912 90.147087 45.089069 92.433929 47.910206 92.445297 C 50.704819 92.456665 53.075027 90.156555 53.107235 87.397942 C 53.139446 84.60144 50.678295 82.176285 47.860943 82.229332 C 45.03981 82.284279 42.752964 84.588181 42.762436 87.36763 Z"/>
            <path id="path5" fill="#70b2f9" stroke="none" d="M 75.975685 83.153923 C 71.818817 83.169083 68.480446 79.898911 68.469078 75.802673 C 68.45771 71.702652 71.917336 68.258171 76.030632 68.271431 C 80.094658 68.284698 83.486084 71.69696 83.457664 75.74205 C 83.431145 79.828812 80.087082 83.138763 75.975685 83.153923 Z M 81.07798 75.770462 C 81.104507 72.884911 78.897232 70.64164 76.017372 70.62838 C 73.15834 70.61512 70.87149 72.856491 70.846863 75.696571 C 70.822227 78.549919 73.06929 80.844345 75.907478 80.861397 C 78.719147 80.880341 81.05146 78.58213 81.07798 75.770462 Z"/>
            <path id="path6" fill="#1283ff" stroke="none" d="M 94.999886 47.627304 C 95.022621 51.791752 91.619827 55.232441 87.52359 55.183178 C 83.472824 55.135811 80.102234 51.727333 80.106026 47.686039 C 80.109818 43.642853 83.497459 40.240059 87.544434 40.211639 C 91.589516 40.185112 94.97715 43.553802 94.999886 47.627304 Z M 82.468658 47.632988 C 82.436447 50.490128 84.666451 52.776966 87.516014 52.809177 C 90.337143 52.839493 92.682724 50.560226 92.711143 47.759933 C 92.741463 44.948269 90.462196 42.623528 87.642952 42.587528 C 84.78392 42.549633 82.50087 44.775848 82.468658 47.632988 Z"/>
            <path id="path7" fill="#005ec4" stroke="none" d="M 76.01358 12.238998 C 80.115501 12.267418 83.451981 15.605797 83.459564 19.688766 C 83.46714 23.735741 80.064339 27.121483 75.992737 27.119591 C 71.88324 27.117699 68.434975 23.652374 68.469078 19.554245 C 68.501282 15.456116 71.851028 12.210579 76.01358 12.238998 Z M 81.07798 19.683083 C 81.074196 16.818375 78.686935 14.461426 75.852531 14.525841 C 73.073074 14.590256 70.87149 16.799423 70.846863 19.552353 C 70.820343 22.460648 73.09771 24.766434 75.992737 24.766434 C 78.853661 24.768333 81.081772 22.540215 81.07798 19.683083 Z"/>
            <path id="path8" fill="#034389" stroke="none" d="M 55.409241 8.070763 C 55.403553 12.157524 52.072758 15.458008 47.948101 15.463699 C 43.743866 15.469376 40.426331 12.136681 40.464222 7.947609 C 40.500221 3.887375 43.903019 0.56794 47.989784 0.605835 C 52.072758 0.64183 55.414925 4.004837 55.409241 8.070763 Z M 42.762436 7.977928 C 42.732121 10.761169 44.977283 13.065063 47.813576 13.15979 C 50.617664 13.254524 53.109131 10.844536 53.107235 8.042343 C 53.105343 5.285622 50.76355 2.968468 47.959469 2.951416 C 45.136436 2.932465 42.794643 5.198471 42.762436 7.977928 Z"/>
            <path id="path9" fill="#353535" stroke="none" d="M 82.586121 68.004288 C 81.432281 67.74472 81.072296 67.153587 81.451225 66.23468 C 82.506554 63.673111 83.559975 61.107754 84.728981 58.599236 C 84.912758 58.207039 85.697144 58.093361 86.203018 57.850845 C 86.42659 58.322617 86.957085 58.91185 86.828255 59.2491 C 85.776726 61.979294 84.619087 64.669701 83.438713 67.346848 C 83.298515 67.661354 82.824852 67.828079 82.586121 68.004288 Z"/>
            <path id="path10" fill="#353535" stroke="none" d="M 28.516548 80.825394 C 28.887901 80.961815 29.08684 81.02433 29.278198 81.105804 C 31.786718 82.161125 34.312286 83.174767 36.781021 84.313454 C 37.207317 84.510498 37.38731 85.238045 37.680981 85.721176 C 37.171318 85.976959 36.534718 86.569984 36.174732 86.433563 C 33.488117 85.414246 30.839394 84.286926 28.228559 83.085716 C 27.872368 82.922775 27.63364 82.149757 27.648798 81.668518 C 27.658272 81.365372 28.238033 81.079277 28.516548 80.825394 Z"/>
            <path id="path11" fill="#353535" stroke="none" d="M 8.437027 58.496922 C 8.927742 57.95126 9.230886 57.326027 9.575713 57.301395 C 10.022851 57.269192 10.765554 57.598858 10.932283 57.972107 C 12.080442 60.550724 13.149026 63.165348 14.136141 65.81028 C 14.276344 66.187317 13.98078 66.952759 13.637847 67.214218 C 13.380174 67.411263 12.42148 67.236954 12.294538 66.975487 C 10.960704 64.201721 9.72918 61.378693 8.437027 58.496922 Z"/>
            <path id="path12" fill="#353535" stroke="none" d="M 87.394753 36.596642 C 86.907829 37.144199 86.636887 37.722065 86.267433 37.795959 C 85.873344 37.873634 85.119278 37.589436 84.97718 37.265453 C 83.815758 34.622417 82.728226 31.943375 81.710793 29.2416 C 81.576279 28.885406 81.858582 28.04229 82.140884 27.936188 C 82.559601 27.778938 83.478508 27.919136 83.616814 28.205231 C 84.931702 30.941109 86.127228 33.735722 87.394753 36.596642 Z"/>
            <path id="path13" fill="#353535" stroke="none" d="M 8.651123 35.924042 C 9.971695 33.04985 11.184273 30.323448 12.512424 27.657677 C 12.658312 27.365898 13.626479 27.17643 13.961832 27.371582 C 14.287712 27.561043 14.545385 28.406067 14.395707 28.792572 C 13.389647 31.376877 12.307801 33.936554 11.136907 36.450756 C 10.949336 36.854309 10.174423 37.216194 9.702655 37.180199 C 9.357828 37.153667 9.064157 36.446968 8.651123 35.924042 Z"/>
            <path id="path14" fill="#353535" stroke="none" d="M 38.455894 9.721001 C 38.037174 10.050674 37.665825 10.490234 37.194054 10.691071 C 34.784058 11.716072 32.366482 12.731606 29.905329 13.620201 C 29.427876 13.79261 28.745802 13.394737 28.156565 13.260216 C 28.351715 12.731606 28.408554 11.886597 28.766644 11.72744 C 31.394526 10.560333 34.065987 9.476593 36.775333 8.510323 C 37.209213 8.354958 37.900761 8.923355 38.472946 9.158287 C 38.467262 9.347755 38.461578 9.533432 38.455894 9.721001 Z"/>
            <path id="path15" fill="#353535" stroke="none" d="M 59.484634 8.275391 C 62.311459 9.569435 65.081436 10.797165 67.792686 12.140472 C 68.095833 12.290154 68.317497 13.256424 68.128036 13.569046 C 67.925308 13.902496 67.085976 14.165863 66.697578 14.016182 C 64.113266 13.017693 61.557384 11.941536 59.043182 10.776321 C 58.632042 10.584969 58.296688 9.836578 58.279636 9.334496 C 58.270161 9.035141 58.954132 8.714943 59.484634 8.275391 Z"/>
            <path id="path16" fill="#353535" stroke="none" d="M 58.851822 87.026596 C 58.309952 86.522614 57.6544 86.16452 57.686611 85.884117 C 57.745346 85.372559 58.097748 84.660172 58.52594 84.466919 C 59.950718 83.820839 61.479702 83.409706 62.936691 82.828049 C 64.00338 82.403641 64.994286 81.77272 66.076126 81.403259 C 66.50621 81.257378 67.319023 81.412743 67.542587 81.725357 C 67.758583 82.026604 67.599434 83.044029 67.328491 83.174767 C 64.562302 84.514282 61.741165 85.736336 58.851822 87.026596 Z"/>
        </g>
        <g id="g1">
            <path id="path17" fill="#2e7de8" stroke="#2e7de8" stroke-width="0.568396" stroke-linecap="round" stroke-linejoin="round" d="M 54.107609 64.254776 C 55.306927 66.050896 56.45319 67.74472 57.572929 69.451797 C 57.944283 70.018295 58.550571 70.548805 58.126171 71.342667 C 57.705559 72.128944 56.934433 71.952744 56.252357 71.952744 C 51.042065 71.96032 45.831772 71.956528 40.619587 71.956528 C 40.377071 71.956528 40.13266 71.964111 39.890144 71.94706 C 38.785561 71.871269 38.327057 71.012993 38.935242 70.077034 C 40.007614 68.424896 41.119774 66.799286 42.21299 65.160416 C 42.391083 64.893265 42.561604 64.620438 42.796543 64.254776 C 42.362663 64.091827 41.970474 63.951626 41.583961 63.801949 C 35.998531 61.630676 32.161858 57.759907 30.217945 52.066471 C 29.749968 50.696644 30.223631 50.054352 31.661671 50.052464 C 35.360031 50.048668 39.060287 50.02972 42.758648 50.069515 C 43.452091 50.077087 43.724918 49.832684 43.957962 49.218811 C 45.013283 46.420414 46.125443 43.642853 47.207291 40.852032 C 47.444122 40.240059 47.737793 39.679245 48.482388 39.690609 C 49.221306 39.703876 49.499821 40.276051 49.734756 40.886135 C 50.801445 43.652325 51.917393 46.399567 52.944298 49.180923 C 53.209549 49.897099 53.565742 50.073299 54.285709 50.06572 C 57.931023 50.027832 61.574436 50.044884 65.219749 50.048668 C 66.72789 50.050568 67.197762 50.672012 66.703262 52.100582 C 64.74987 57.750427 60.939724 61.617413 55.384609 63.786793 C 55.007568 63.938362 54.624851 64.0672 54.107609 64.254776 Z M 32.917824 52.367722 C 34.867424 57.977791 41.466496 63.527225 50.301254 62.655685 C 57.607033 61.935715 62.836273 56.477222 63.923801 52.367722 C 53.607426 52.367722 43.29673 52.367722 32.917824 52.367722 Z M 54.941261 69.641266 C 53.868889 68.034599 52.895035 66.551086 51.883289 65.094101 C 51.773403 64.936844 51.438046 64.872421 51.205009 64.870529 C 49.376663 64.853485 47.546432 64.847801 45.718094 64.876221 C 45.454739 64.880005 45.100437 65.024002 44.95076 65.224831 C 44.370998 66.00164 43.857544 66.827705 43.319466 67.636726 C 42.895061 68.273331 42.472553 68.908035 41.985626 69.641266 C 46.367958 69.641266 50.572189 69.641266 54.941261 69.641266 Z M 48.461552 43.995255 C 47.643059 46.109692 46.896568 48.040337 46.134918 50.008884 C 47.743477 50.008884 49.217514 50.008884 50.791969 50.008884 C 50.022739 48.019501 49.278145 46.102108 48.461552 43.995255 Z"/>
            <path id="path18" fill="#2e7de8" stroke="none" d="M 48.105354 23.504601 C 42.021626 23.614487 36.59724 26.033958 32.269852 30.871002 C 32.027336 31.141945 31.705248 31.498138 31.402102 31.518974 C 31.009911 31.545502 30.481304 31.380661 30.219841 31.10405 C 29.806805 30.66449 29.911013 30.048721 30.342993 29.639481 C 31.830296 28.233643 33.224758 26.685715 34.880684 25.512924 C 44.693089 18.567131 58.262585 20.206001 66.231491 29.209396 C 66.375481 29.370438 66.525162 29.527695 66.648315 29.703896 C 67.048088 30.274185 67.000717 31.037735 66.502426 31.374977 C 65.932137 31.759598 65.388367 31.65728 64.901443 31.168465 C 64.007164 30.270393 63.162155 29.311699 62.195881 28.498901 C 58.243637 25.175682 53.641529 23.570908 48.105354 23.504601 Z"/>
            <path id="path19" fill="#1067c6" stroke="none" d="M 47.707478 27.600838 C 53.211445 27.437897 57.732082 29.516327 61.354652 33.61446 C 61.871895 34.199905 61.809376 34.899033 61.282661 35.336697 C 60.780575 35.753517 60.117447 35.658787 59.571785 35.048714 C 57.487667 32.718288 55.00568 30.988472 51.932552 30.295029 C 46.386906 29.042664 41.654064 30.575439 37.720768 34.652725 C 37.608982 34.768303 37.506672 34.895248 37.396782 35.01461 C 36.811333 35.649315 36.136837 35.764885 35.62339 35.323433 C 35.070148 34.847881 35.072044 34.158226 35.691597 33.474258 C 38.766617 30.079041 42.512344 27.991135 47.144768 27.650093 C 47.332336 27.633041 47.519909 27.61599 47.707478 27.600838 Z"/>
            <path id="path20" fill="#0c4889" stroke="none" d="M 57.243263 38.559498 C 56.943905 38.896751 56.697601 39.419678 56.362251 39.485985 C 55.947323 39.567455 55.312611 39.41209 55.02462 39.114635 C 53.02198 37.055141 50.638504 36.05098 47.762424 36.253708 C 45.445263 36.416645 43.558189 37.441658 41.938263 39.074848 C 41.646488 39.368519 41.083775 39.576931 40.685898 39.52388 C 40.37328 39.482197 39.933723 39.000954 39.893932 38.675076 C 39.848461 38.294254 40.083397 37.782696 40.358124 37.475761 C 44.130375 33.252583 50.88102 32.718288 55.287979 36.278339 C 55.78817 36.6838 56.252357 37.140404 56.691917 37.612171 C 56.904118 37.837635 57.015903 38.154045 57.243263 38.559498 Z"/>
        </g>
    </g>
</svg>
