<?xml version="1.0" encoding="utf-8"?>
<!-- Generator: Adobe Illustrator 24.2.3, SVG Export Plug-In . SVG Version: 6.00 Build 0)  -->
<svg version="1.1" xmlns="http://www.w3.org/2000/svg" xmlns:xlink="http://www.w3.org/1999/xlink" x="0px" y="0px"
	 viewBox="0 0 14400 14400" style="enable-background:new 0 0 14400 14400;" xml:space="preserve">
<style type="text/css">
	.st0{fill:#2E7DE8;stroke:#2E7DE8;stroke-width:3;stroke-miterlimit:10;}
	.st1{fill:#064487;}
	.st2{fill:#005EC4;}
	.st3{fill:#1283FF;}
	.st4{fill:#70B2F9;}
	.st5{fill:#C5E1FF;}
	.st6{fill:#034389;}
	.st7{fill:#353535;}
	.st8{fill:#2E7DE8;}
	.st9{fill:#1067C6;}
	.st10{fill:#0C4889;}
</style>
<g id="Layer_1">
	<g>
		<g>
			<path class="st0" d="M6620.18,7414.23c32.36-2.03,32.34-2.02,42.88,26.31c5.55,14.92,11.2,29.81,17.84,47.46
				c7.04-14.51,13.01-26.82,18.98-39.12c5.94-12.23,11.87-24.47,18.69-38.53c12.75,26.27,24.75,51,37.7,77.66
				c7.38-19.29,14.12-36.81,20.79-54.37c7.57-19.95,7.54-19.96,29.03-19.93c3.32,0,6.64,0,11.28,0
				c-19.16,49.2-37.98,97.53-57.7,148.2c-13.94-28.82-27.02-55.84-41.07-84.87c-14.07,28.78-27.25,55.75-41.45,84.81
				C6657.79,7511.66,6639.15,7463.38,6620.18,7414.23z"/>
			<path class="st0" d="M7191.5,7555.5c0-47.24,0-94.19,0-140.63c24.93,0,49.27-0.91,73.5,0.33c15.52,0.8,27.03,9.65,30.7,25.71
				c3.71,16.23,0.99,30.62-14.7,40.28c0.68,1.03,1,2.04,1.68,2.48c17.07,10.93,22.79,23.29,19.39,42.06
				c-2.86,15.77-14.52,27.99-33.63,29.34C7243.27,7556.84,7217.88,7555.5,7191.5,7555.5z M7222.64,7497.73c0,11.42,0,21.56,0,32.08
				c11.66,0,22.64,0.49,33.56-0.14c9.76-0.56,15.96-7.42,15.93-15.98c-0.04-8.59-6.28-15.31-16.06-15.82
				C7245.15,7497.29,7234.18,7497.73,7222.64,7497.73z M7221.94,7470.21c10.63,0,19.91-0.01,29.19,0
				c9.44,0.01,14.11-5.44,14.81-14.13c0.69-8.6-4.03-14.46-12.44-15.2c-10.12-0.89-20.38-0.21-31-0.21
				c-0.22,2.48-0.52,4.4-0.54,6.33C7221.9,7454.27,7221.94,7461.54,7221.94,7470.21z"/>
			<path class="st0" d="M7701.24,7556.15c-9.57,0-18.4,0-28.69,0c0-16.76,0-33.33,0-49.89c0-4.67,0.17-9.35,0.02-14.01
				c-0.38-11.95-6.88-19.49-17.59-20.6c-12.17-1.27-21.05,4.66-23.21,16.83c-1.33,7.47-1.03,15.27-1.1,22.92
				c-0.15,14.61-0.04,29.22-0.04,44.62c-10.12,0-19.21,0-28.9,0c0-35.37,0-70.25,0-105.07c16.62-4.6,27.37-2.54,29.03,3.88
				c10.88-2.44,21.77-7.18,32.41-6.64c10.6,0.53,20.93,6.34,33.32,10.49c10.77-10.68,27.12-13.42,44.62-10.3
				c18.08,3.22,29.9,15.31,31.17,35.31c1.51,23.85,0.35,47.86,0.35,72.47c-9.62,0-18.74,0-29.08,0c0-21.78,0.02-43.04-0.01-64.29
				c-0.02-8.77-3.32-15.74-11.95-18.89c-8.02-2.93-16.83-2.95-22.18,3.91c-4.18,5.37-6.92,13.05-7.37,19.89
				c-1.04,15.95-0.27,32.01-0.31,48.02C7701.72,7548.37,7701.43,7551.94,7701.24,7556.15z"/>
			<path class="st0" d="M7078.28,7591.2c-9.96,0-18.52,0-27.94,0c0-46.78,0-93.59,0-140.45c16.45-4.28,26.34-2.25,29.31,6.86
				c13.97-10.99,30.36-13.78,46.26-8.71c10.5,3.35,21.18,10.53,28.38,18.91c16.15,18.79,13.84,55.31-2.01,73.62
				c-14.32,16.55-45.25,26.17-74,6.29C7078.28,7562.66,7078.28,7576.69,7078.28,7591.2z M7136.41,7503.33
				c0.06-18.22-11.86-30.68-29.5-30.84c-18.1-0.16-29.79,11.71-29.76,30.21c0.03,18.51,11.59,30.71,29.34,30.96
				C7124.2,7533.89,7136.34,7521.58,7136.41,7503.33z"/>
			<path class="st0" d="M7542.15,7548.39c-27.92,18.68-59.23,10.58-74.69-8.67c-15.72-19.57-14.64-56.95,1.66-75.56
				c17.23-19.66,51.6-23.32,71.73-6.92c6.81-16.04,19.95-4.49,30.52-8.53c0,36.52,0,71.38,0,106.15
				C7555.63,7559.85,7544.12,7557.5,7542.15,7548.39z M7484.55,7503.11c0.13,17.76,12.92,30.57,30.28,30.34
				c17.88-0.24,29.81-12.68,29.54-30.8c-0.26-17.94-12.82-30.57-30.22-30.4C7496.5,7472.43,7484.42,7485.03,7484.55,7503.11z"/>
			<path class="st0" d="M6906.1,7456.79c7.01-15.33,19.95-3.83,30.26-8.25c0,36.58,0,71.47,0,106.33
				c-15.5,4.98-27.06,2.72-29.6-6.81c-14.28,11.45-30.96,13.98-47.19,8.8c-10.2-3.26-20.56-10.34-27.53-18.52
				c-16.14-18.97-14.1-55.35,1.71-73.72C6847.42,7448.73,6877.18,7437.87,6906.1,7456.79z M6909.29,7503.34
				c0.03-18.31-11.74-30.73-29.45-31.08c-17.43-0.34-30.2,12.34-30.38,30.16c-0.17,17.65,12.37,30.77,29.67,31.04
				C6897.05,7533.72,6909.26,7521.53,6909.29,7503.34z"/>
			<path class="st0" d="M7352.52,7513.97c4.36,22.6,32.9,26.33,56.46,7.93c6.99,3.99,14.32,8.17,21.7,12.39
				c-16.32,24.77-51.8,32.35-80.18,17.89c-24.39-12.43-35.23-42.94-24.76-69.7c10.27-26.25,41.21-40.81,70.38-33.11
				c29.27,7.73,44.58,32.05,39.59,64.6C7408.22,7513.97,7380.48,7513.97,7352.52,7513.97z M7405.37,7493.23
				c-2.7-13.37-11.64-20.25-25.62-20.11c-15.04,0.15-24.2,6.88-26.8,20.11C7370.45,7493.23,7387.86,7493.23,7405.37,7493.23z"/>
			<path class="st0" d="M7030.8,7472.94c-9.48,3.96-19.61,5.68-25.85,11.54c-5.59,5.26-8.78,14.86-9.69,22.92
				c-1.52,13.5-0.67,27.32-0.22,40.98c0.22,6.69-2.25,8.9-8.67,8.51c-6.55-0.4-13.13-0.09-20.23-0.09c0-36.14,0-71.04,0-106.76
				c9.21,0,18.31,0,28.1,0c0.38,3.19,0.76,6.38,1.03,8.6c11.16-4.39,22.46-8.83,35.52-13.97
				C7030.8,7456.6,7030.8,7465.36,7030.8,7472.94z"/>
		</g>
		<g>
			<path d="M6640.64,7663.48c4.62,0,8.22-0.84,10.78-2.53c2.57-1.69,3.85-4.42,3.85-8.19c0-2.17-0.42-3.99-1.24-5.45
				c-0.83-1.46-1.93-2.69-3.3-3.69c-1.37-1-2.94-1.85-4.71-2.56c-1.77-0.71-3.62-1.46-5.56-2.25c-2.45-0.96-4.65-1.96-6.59-2.98
				c-1.94-1.02-3.6-2.17-4.96-3.46c-1.37-1.28-2.42-2.76-3.13-4.41c-0.71-1.65-1.07-3.59-1.07-5.82c0-5.08,1.68-8.93,5.05-11.55
				c3.37-2.62,8.05-3.94,14.04-3.94c1.6,0,3.17,0.12,4.71,0.34c1.54,0.23,2.98,0.53,4.33,0.9c1.34,0.37,2.57,0.79,3.68,1.24
				c1.11,0.46,2.04,0.94,2.78,1.46l-2.06,4.88c-1.66-1.14-3.67-2.06-6.04-2.74c-2.37-0.69-4.92-1.03-7.66-1.03
				c-1.88,0-3.61,0.19-5.18,0.56c-1.57,0.37-2.92,0.97-4.07,1.8c-1.14,0.83-2.04,1.87-2.7,3.12c-0.65,1.26-0.98,2.77-0.98,4.54
				c0,1.83,0.34,3.37,1.03,4.62c0.69,1.26,1.64,2.34,2.87,3.25c1.23,0.91,2.67,1.74,4.32,2.48c1.66,0.74,3.45,1.51,5.39,2.31
				c2.34,0.97,4.55,1.94,6.63,2.91c2.08,0.97,3.89,2.11,5.43,3.42c1.54,1.31,2.77,2.91,3.68,4.79c0.91,1.89,1.37,4.2,1.37,6.94
				c0,5.36-1.87,9.39-5.61,12.07c-3.74,2.69-8.8,4.02-15.19,4.02c-2.29,0-4.37-0.15-6.25-0.43c-1.88-0.29-3.57-0.64-5.05-1.07
				c-1.48-0.43-2.74-0.87-3.77-1.33c-1.03-0.45-1.83-0.85-2.4-1.2l1.88-5.05c0.57,0.34,1.34,0.74,2.31,1.2
				c0.97,0.46,2.11,0.9,3.42,1.33c1.31,0.43,2.79,0.79,4.45,1.07C6636.82,7663.34,6638.64,7663.48,6640.64,7663.48z"/>
			<path d="M6708.52,7607.41c8.39,0,14.64,1.6,18.75,4.79c4.11,3.19,6.17,7.73,6.17,13.61c0,3.37-0.6,6.24-1.8,8.6
				c-1.2,2.37-2.91,4.28-5.14,5.74c-2.22,1.45-4.95,2.51-8.17,3.17c-3.23,0.66-6.86,0.98-10.91,0.98h-8.05v22.94h-5.82v-58.21
				c2.05-0.57,4.47-0.99,7.23-1.24C6703.54,7607.54,6706.12,7607.41,6708.52,7607.41z M6708.78,7612.46c-2.17,0-4.01,0.07-5.52,0.21
				c-1.51,0.14-2.81,0.27-3.9,0.38v26.19h7.36c3.14,0,5.98-0.18,8.52-0.56c2.54-0.37,4.71-1.06,6.51-2.06c1.8-1,3.18-2.38,4.15-4.15
				c0.97-1.77,1.46-4.02,1.46-6.76c0-2.63-0.53-4.79-1.58-6.51c-1.06-1.71-2.45-3.07-4.2-4.07c-1.74-1-3.72-1.69-5.95-2.1
				C6713.4,7612.67,6711.11,7612.46,6708.78,7612.46z"/>
			<path d="M6802.24,7667.25c-1.13-2.91-2.17-5.71-3.12-8.4s-1.86-5.31-2.72-7.86h-28.98c-0.99,2.56-1.96,5.19-2.9,7.88
				c-0.95,2.69-1.95,5.49-3.01,8.38h-6.07c2.25-6.18,4.38-11.93,6.38-17.26c2-5.33,3.97-10.38,5.9-15.14
				c1.93-4.76,3.84-9.33,5.74-13.72c1.9-4.38,3.89-8.79,5.99-13.2h5.13c2.09,4.39,4.08,8.79,5.96,13.18
				c1.88,4.4,3.78,8.97,5.71,13.73c1.93,4.76,3.89,9.81,5.88,15.15c1.99,5.34,4.17,11.09,6.56,17.26H6802.24z M6781.83,7614.6
				c-2.15,4.93-4.24,9.93-6.27,15c-2.04,5.07-4.14,10.55-6.32,16.42h25.32c-2.19-5.88-4.32-11.36-6.4-16.44
				C6786.09,7624.5,6783.98,7619.51,6781.83,7614.6z"/>
			<path d="M6862.51,7668.53c-3.82,0-7.37-0.69-10.65-2.06c-3.28-1.37-6.14-3.37-8.56-5.99c-2.43-2.62-4.34-5.86-5.73-9.72
				c-1.4-3.85-2.1-8.26-2.1-13.22c0-4.97,0.76-9.38,2.27-13.23s3.52-7.09,6.04-9.72c2.51-2.62,5.42-4.61,8.73-5.95
				c3.31-1.34,6.76-2.01,10.36-2.01c2.22,0,4.25,0.15,6.08,0.43c1.83,0.29,3.42,0.64,4.79,1.07c1.37,0.43,2.54,0.86,3.51,1.28
				c0.97,0.43,1.71,0.81,2.22,1.15l-1.88,5.05c-1.43-0.85-3.24-1.69-5.44-2.52c-2.2-0.83-4.92-1.24-8.17-1.24
				c-3.71,0-6.95,0.63-9.72,1.88c-2.77,1.26-5.09,3.03-6.98,5.31c-1.88,2.28-3.3,4.99-4.24,8.13c-0.94,3.14-1.41,6.62-1.41,10.44
				c0,3.94,0.47,7.49,1.41,10.65c0.94,3.17,2.33,5.86,4.15,8.09c1.82,2.22,4.07,3.94,6.72,5.14c2.65,1.2,5.7,1.8,9.12,1.8
				c3.77,0,6.92-0.36,9.46-1.07c2.54-0.71,4.46-1.44,5.78-2.18l1.63,4.96c-0.4,0.29-1.09,0.61-2.06,0.99
				c-0.97,0.37-2.2,0.76-3.68,1.15s-3.19,0.73-5.14,0.99C6867.07,7668.4,6864.91,7668.53,6862.51,7668.53z"/>
			<path d="M6911.39,7667.25v-59.32h34.24v5.05h-28.42v20.63h25.34v4.96h-25.34v23.63h30.64v5.05H6911.39z"/>
			<path d="M7058.87,7607.93v5.05h-19v54.27h-5.82v-54.27h-19v-5.05H7058.87z"/>
			<path d="M7141.39,7637.55c0,5.08-0.74,9.56-2.22,13.44c-1.49,3.88-3.5,7.12-6.04,9.72c-2.54,2.6-5.49,4.55-8.86,5.86
				c-3.37,1.31-6.94,1.97-10.7,1.97s-7.33-0.66-10.7-1.97c-3.37-1.31-6.32-3.26-8.86-5.86c-2.54-2.6-4.55-5.83-6.04-9.72
				c-1.48-3.88-2.22-8.36-2.22-13.44c0-5.08,0.74-9.55,2.22-13.4c1.48-3.85,3.5-7.07,6.04-9.67c2.54-2.6,5.49-4.55,8.86-5.86
				c3.37-1.31,6.93-1.97,10.7-1.97s7.33,0.66,10.7,1.97c3.37,1.32,6.32,3.27,8.86,5.86c2.54,2.6,4.55,5.82,6.04,9.67
				C7140.65,7628,7141.39,7632.47,7141.39,7637.55z M7135.23,7637.55c0-4-0.51-7.58-1.54-10.74c-1.03-3.17-2.48-5.86-4.36-8.09
				c-1.88-2.23-4.15-3.93-6.81-5.1c-2.65-1.17-5.64-1.75-8.94-1.75c-3.31,0-6.29,0.59-8.94,1.75c-2.65,1.17-4.92,2.87-6.81,5.1
				c-1.88,2.22-3.34,4.92-4.36,8.09c-1.03,3.17-1.54,6.75-1.54,10.74c0,3.99,0.52,7.57,1.54,10.74c1.03,3.17,2.48,5.86,4.36,8.09
				c1.88,2.22,4.15,3.94,6.81,5.14s5.63,1.8,8.94,1.8c3.31,0,6.29-0.6,8.94-1.8c2.65-1.2,4.92-2.91,6.81-5.14
				c1.88-2.23,3.34-4.92,4.36-8.09C7134.71,7645.12,7135.23,7641.54,7135.23,7637.55z"/>
			<path d="M7216.71,7667.25v-59.32h34.24v5.05h-28.42v20.63h25.34v4.96h-25.34v23.63h30.65v5.05H7216.71z"/>
			<path d="M7285.28,7607.93c1.71,5.08,3.37,9.89,4.97,14.42c1.6,4.54,3.18,8.93,4.73,13.18c1.55,4.25,3.11,8.42,4.7,12.5
				c1.58,4.09,3.3,8.21,5.16,12.38c1.77-4.1,3.46-8.19,5.08-12.28c1.61-4.08,3.21-8.25,4.79-12.5c1.58-4.25,3.16-8.65,4.74-13.21
				c1.58-4.56,3.23-9.39,4.94-14.49h6.17c-2.61,7.5-4.98,14.08-7.08,19.71c-2.11,5.64-4.05,10.75-5.83,15.32
				c-1.78,4.57-3.48,8.78-5.11,12.64c-1.62,3.86-3.32,7.74-5.09,11.65h-5.46c-1.73-3.95-3.43-7.86-5.08-11.71s-3.4-8.06-5.21-12.61
				c-1.81-4.56-3.77-9.66-5.85-15.31c-2.09-5.64-4.44-12.21-7.06-19.69H7285.28z"/>
			<path d="M7360.43,7667.25v-59.32h34.24v5.05h-28.42v20.63h25.34v4.96h-25.34v23.63h30.64v5.05H7360.43z"/>
			<path d="M7468.88,7625.73c0,4.45-1.17,7.96-3.51,10.53c-2.34,2.57-5.43,4.42-9.25,5.56c0.91,1.14,2.1,2.69,3.55,4.62
				c1.46,1.94,2.96,4.07,4.5,6.38c1.54,2.31,3.05,4.72,4.54,7.23c1.48,2.51,2.74,4.91,3.77,7.19h-6.25c-1.2-2.28-2.5-4.56-3.89-6.85
				c-1.4-2.28-2.82-4.5-4.28-6.63c-1.46-2.14-2.87-4.12-4.24-5.95c-1.37-1.83-2.57-3.42-3.59-4.79c-1.83,0.17-3.65,0.26-5.48,0.26
				h-9.59v23.97h-5.82v-58.21c2.06-0.57,4.47-0.99,7.23-1.24c2.77-0.25,5.32-0.38,7.66-0.38c8.16,0,14.31,1.54,18.45,4.62
				C7466.82,7615.12,7468.88,7619.69,7468.88,7625.73z M7444.92,7612.46c-2.17,0-4.07,0.07-5.69,0.21
				c-1.63,0.14-2.98,0.27-4.07,0.38v25.25h8.05c2.68,0,5.22-0.13,7.62-0.39s4.48-0.83,6.25-1.71c1.77-0.88,3.17-2.15,4.2-3.81
				c1.03-1.66,1.54-3.91,1.54-6.76c0-2.62-0.52-4.79-1.54-6.51c-1.03-1.71-2.37-3.07-4.02-4.07c-1.66-1-3.55-1.68-5.69-2.05
				C7449.41,7612.65,7447.2,7612.46,7444.92,7612.46z"/>
			<path d="M7516.82,7667.25v-24.39c-4.07-6.22-7.81-12.23-11.22-18.02c-3.41-5.79-6.58-11.43-9.5-16.91h6.76
				c2.4,5.02,5.05,10.11,7.94,15.28c2.89,5.16,5.91,10.09,9.05,14.76c3.03-4.68,6.01-9.6,8.92-14.76c2.92-5.17,5.6-10.26,8.07-15.28
				h6.33c-3.03,5.42-6.22,11.06-9.59,16.91c-3.37,5.85-7.02,11.8-10.96,17.85v24.57H7516.82z"/>
			<path d="M7623.73,7637.55c0,5.08-0.74,9.56-2.22,13.44c-1.49,3.88-3.5,7.12-6.04,9.72c-2.54,2.6-5.49,4.55-8.86,5.86
				c-3.37,1.31-6.94,1.97-10.7,1.97c-3.77,0-7.33-0.66-10.7-1.97c-3.37-1.31-6.32-3.26-8.86-5.86c-2.54-2.6-4.55-5.83-6.04-9.72
				c-1.48-3.88-2.22-8.36-2.22-13.44c0-5.08,0.74-9.55,2.22-13.4c1.48-3.85,3.5-7.07,6.04-9.67c2.54-2.6,5.49-4.55,8.86-5.86
				c3.37-1.31,6.93-1.97,10.7-1.97c3.77,0,7.33,0.66,10.7,1.97c3.37,1.32,6.32,3.27,8.86,5.86c2.54,2.6,4.55,5.82,6.04,9.67
				C7622.99,7628,7623.73,7632.47,7623.73,7637.55z M7617.57,7637.55c0-4-0.51-7.58-1.54-10.74c-1.03-3.17-2.48-5.86-4.36-8.09
				c-1.88-2.23-4.15-3.93-6.81-5.1c-2.65-1.17-5.64-1.75-8.94-1.75c-3.31,0-6.29,0.59-8.94,1.75c-2.65,1.17-4.92,2.87-6.81,5.1
				c-1.88,2.22-3.34,4.92-4.36,8.09c-1.03,3.17-1.54,6.75-1.54,10.74c0,3.99,0.52,7.57,1.54,10.74s2.48,5.86,4.36,8.09
				c1.88,2.22,4.15,3.94,6.81,5.14s5.63,1.8,8.94,1.8c3.31,0,6.29-0.6,8.94-1.8s4.92-2.91,6.81-5.14c1.88-2.23,3.34-4.92,4.36-8.09
				C7617.06,7645.12,7617.57,7641.54,7617.57,7637.55z"/>
			<path d="M7698.54,7667.25c-1.1-1.98-2.48-4.33-4.15-7.02s-3.51-5.56-5.54-8.59c-2.03-3.03-4.15-6.16-6.36-9.39
				c-2.21-3.23-4.41-6.38-6.6-9.44c-2.19-3.06-4.33-5.92-6.43-8.6c-2.1-2.67-3.96-4.98-5.59-6.92v49.97h-5.73v-59.32h4.62
				c2.91,3.25,6.04,7.01,9.36,11.27s6.59,8.6,9.79,13.02c3.2,4.42,6.18,8.74,8.96,12.96c2.77,4.22,5.05,7.9,6.82,11.03v-48.28h5.73
				v59.32H7698.54z"/>
			<path d="M7740.23,7667.25v-59.32h34.24v5.05h-28.42v20.63h25.34v4.96h-25.34v23.63h30.64v5.05H7740.23z"/>
		</g>
	</g>
</g>
<g id="Layer_3">
	<g>
		<path class="st1" d="M7199.04,7266.12c-108.63,0.22-196.85-87.77-196.98-196.44c-0.12-109.06,86.65-196.3,196.15-197.21
			c108.67-0.9,198.08,88.08,197.98,197.04C7396.1,7177.9,7307.85,7265.9,7199.04,7266.12z M7376.36,7069.13
			c-0.11-98.27-79.4-177.44-177.57-177.32c-97.82,0.12-177.73,79.99-177.66,177.59c0.06,97.57,80.21,177.43,177.93,177.31
			C7297.38,7246.57,7376.47,7167.36,7376.36,7069.13z"/>
		<path class="st2" d="M7068.91,6892.75c-0.22,25.7-21.5,46.71-47.26,46.67c-26.16-0.05-47.18-21.6-46.83-48.02
			c0.34-25.67,21.67-46.12,47.89-45.91C7048.85,6845.7,7069.14,6866.46,7068.91,6892.75z M7021.25,6924.61
			c18.06,0.25,33.22-14.55,33.24-32.45c0.02-17.54-14.69-32.2-32.32-32.23c-17.44-0.02-32.41,14.61-32.78,32.04
			C6989.02,6909.46,7003.57,6924.37,7021.25,6924.61z"/>
		<path class="st3" d="M6995.71,7068.89c0.19,25.7-20.62,47.03-46.44,47.59c-25.54,0.55-47.86-21.56-47.8-47.35
			c0.06-25.48,21.5-46.92,47.06-47.08C6973.99,7021.89,6995.52,7043.26,6995.71,7068.89z M6980.91,7069.36
			c0.04-18.01-14.16-32.31-32.13-32.35c-18.08-0.04-32.24,14.06-32.28,32.15c-0.04,18.12,14.01,32.29,32.07,32.34
			C6966.55,7101.55,6980.87,7087.33,6980.91,7069.36z"/>
		<path class="st4" d="M7068.91,7246.6c-0.03,26.16-20.66,46.54-47.02,46.44c-26.43-0.1-47.26-21.2-47.09-47.72
			c0.17-25.4,22.01-46.56,47.68-46.2C7048.18,7199.49,7068.94,7220.72,7068.91,7246.6z M7023.14,7214.06
			c-17.85-0.81-32.92,12.86-33.74,30.6c-0.81,17.59,13.86,33.2,31.87,33.9c17.01,0.65,32.27-13.27,33.2-30.29
			C7055.45,7230.33,7041.29,7214.87,7023.14,7214.06z"/>
		<path class="st5" d="M7151.78,7319.48c0-25.91,20.85-46.73,46.87-46.81c26.5-0.08,47.59,20.95,47.45,47.3
			c-0.14,25.52-21.67,46.59-47.46,46.46C7172.79,7366.3,7151.78,7345.25,7151.78,7319.48z M7166.29,7319.62
			c0.06,17.54,14.69,31.97,32.49,32.05c17.64,0.07,32.59-14.45,32.8-31.85c0.21-17.65-15.32-32.95-33.11-32.62
			C7180.67,7287.54,7166.24,7302.08,7166.29,7319.62z"/>
		<path class="st4" d="M7375.9,7293.03c-26.23,0.09-47.3-20.55-47.38-46.39c-0.07-25.87,21.77-47.61,47.73-47.52
			c25.65,0.09,47.05,21.61,46.88,47.15C7422.95,7272.05,7401.85,7292.94,7375.9,7293.03z M7408.1,7246.44
			c0.17-18.21-13.76-32.37-31.94-32.45c-18.05-0.08-32.48,14.06-32.63,31.98c-0.16,18.01,14.03,32.48,31.94,32.6
			C7393.22,7278.68,7407.94,7264.18,7408.1,7246.44z"/>
		<path class="st3" d="M7495.96,7068.83c0.15,26.29-21.33,47.99-47.19,47.68c-25.56-0.3-46.84-21.81-46.81-47.32
			c0.03-25.51,21.41-46.99,46.94-47.17C7474.44,7021.86,7495.82,7043.12,7495.96,7068.83z M7416.88,7068.86
			c-0.21,18.03,13.87,32.47,31.85,32.67c17.8,0.19,32.6-14.19,32.79-31.86c0.19-17.74-14.19-32.42-31.99-32.65
			C7431.49,7036.78,7417.08,7050.83,7416.88,7068.86z"/>
		<path class="st2" d="M7376.14,6845.49c25.88,0.17,46.95,21.25,46.99,47.01c0.04,25.54-21.43,46.9-47.13,46.89
			c-25.94-0.01-47.69-21.89-47.48-47.75C7328.73,6865.8,7349.87,6845.31,7376.14,6845.49z M7408.11,6892.48
			c-0.02-18.08-15.09-32.95-32.97-32.54c-17.54,0.4-31.44,14.35-31.59,31.72c-0.16,18.35,14.2,32.91,32.48,32.91
			C7394.06,6924.57,7408.13,6910.5,7408.11,6892.48z"/>
		<path class="st6" d="M7246.11,6819.18c-0.04,25.79-21.06,46.62-47.09,46.66c-26.53,0.04-47.47-20.99-47.24-47.43
			c0.23-25.62,21.7-46.57,47.5-46.34C7225.05,6772.3,7246.14,6793.52,7246.11,6819.18z M7166.3,6818.6
			c-0.2,17.56,13.98,32.1,31.87,32.7c17.69,0.6,33.42-14.61,33.41-32.29c-0.01-17.4-14.79-32.02-32.49-32.13
			C7181.27,6786.76,7166.49,6801.06,7166.3,6818.6z"/>
		<path class="st7" d="M7417.61,7197.43c-7.28-1.64-9.55-5.37-7.16-11.17c6.67-16.16,13.3-32.35,20.68-48.19
			c1.15-2.48,6.1-3.19,9.3-4.72c1.42,2.98,4.76,6.7,3.94,8.82c-6.64,17.23-13.94,34.21-21.39,51.11
			C7422.11,7195.26,7419.12,7196.32,7417.61,7197.43z"/>
		<path class="st7" d="M7076.39,7278.34c2.35,0.86,3.6,1.26,4.81,1.77c15.83,6.65,31.77,13.06,47.35,20.25
			c2.69,1.24,3.83,5.84,5.68,8.89c-3.21,1.61-7.23,5.36-9.5,4.5c-16.95-6.44-33.67-13.54-50.14-21.13c-2.24-1.03-3.75-5.9-3.66-8.94
			C7070.97,7281.75,7074.63,7279.94,7076.39,7278.34z"/>
		<path class="st7" d="M6949.66,7137.42c3.1-3.45,5-7.39,7.19-7.55c2.83-0.21,7.51,1.88,8.56,4.23
			c7.24,16.27,13.99,32.78,20.22,49.46c0.89,2.38-0.98,7.21-3.14,8.86c-1.63,1.24-7.68,0.14-8.47-1.5
			C6965.59,7173.42,6957.82,7155.61,6949.66,7137.42z"/>
		<path class="st7" d="M7447.97,6999.21c-3.07,3.46-4.78,7.1-7.12,7.56c-2.49,0.49-7.24-1.3-8.14-3.35
			c-7.33-16.68-14.19-33.58-20.61-50.64c-0.85-2.25,0.93-7.56,2.71-8.23c2.64-0.99,8.44-0.11,9.31,1.7
			C7432.42,6963.52,7439.97,6981.15,7447.97,6999.21z"/>
		<path class="st7" d="M6951.02,6994.96c8.34-18.14,15.98-35.34,24.37-52.17c0.92-1.85,7.03-3.04,9.15-1.81
			c2.06,1.2,3.69,6.53,2.74,8.96c-6.35,16.31-13.17,32.46-20.56,48.33c-1.19,2.55-6.07,4.83-9.05,4.61
			C6955.48,7002.73,6953.62,6998.27,6951.02,6994.96z"/>
		<path class="st7" d="M7139.11,6829.6c-2.64,2.08-4.98,4.86-7.97,6.13c-15.21,6.47-30.46,12.87-46,18.49
			c-3.01,1.09-7.32-1.42-11.03-2.27c1.24-3.33,1.58-8.66,3.85-9.67c16.59-7.37,33.45-14.21,50.54-20.3
			c2.74-0.98,7.1,2.61,10.72,4.09C7139.19,6827.24,7139.15,6828.42,7139.11,6829.6z"/>
		<path class="st7" d="M7271.82,6820.48c17.84,8.17,35.32,15.91,52.44,24.39c1.91,0.95,3.32,7.04,2.12,9.01
			c-1.28,2.1-6.57,3.77-9.03,2.82c-16.31-6.31-32.44-13.1-48.3-20.45c-2.6-1.2-4.71-5.93-4.82-9.1
			C7264.16,6825.28,7268.48,6823.26,7271.82,6820.48z"/>
		<path class="st7" d="M7267.83,7317.47c-3.41-3.18-7.56-5.44-7.36-7.21c0.37-3.23,2.6-7.72,5.3-8.95
			c8.99-4.07,18.64-6.68,27.83-10.34c6.74-2.68,12.98-6.67,19.81-8.99c2.71-0.92,7.84,0.06,9.25,2.03c1.36,1.91,0.36,8.32-1.35,9.15
			C7303.87,7301.62,7286.06,7309.33,7267.83,7317.47z"/>
	</g>
	<g>
		<path class="st0" d="M7237.9,7173.77c7.57,11.33,14.8,22.02,21.87,32.8c2.34,3.57,6.17,6.92,3.49,11.94
			c-2.66,4.96-7.53,3.85-11.83,3.85c-32.88,0.05-65.77,0.03-98.65,0.03c-1.53,0-3.07,0.05-4.6-0.05c-6.98-0.48-9.87-5.89-6.03-11.8
			c6.76-10.43,13.78-20.69,20.69-31.03c1.13-1.69,2.2-3.41,3.68-5.72c-2.74-1.02-5.21-1.91-7.66-2.86
			c-35.25-13.71-59.46-38.14-71.73-74.07c-2.95-8.65,0.03-12.7,9.11-12.71c23.34-0.03,46.69-0.15,70.03,0.11
			c4.38,0.05,6.1-1.5,7.56-5.37c6.66-17.66,13.68-35.19,20.5-52.8c1.5-3.86,3.35-7.41,8.05-7.32c4.67,0.08,6.42,3.69,7.9,7.54
			c6.74,17.46,13.77,34.8,20.25,52.35c1.67,4.52,3.92,5.64,8.47,5.59c23-0.24,46-0.13,69.01-0.1c9.52,0.01,12.48,3.93,9.37,12.95
			c-12.33,35.66-36.38,60.06-71.43,73.75C7243.57,7171.77,7241.16,7172.58,7237.9,7173.77z M7104.17,7098.75
			c12.31,35.41,53.95,70.43,109.71,64.93c46.11-4.54,79.11-38.99,85.97-64.93C7234.73,7098.75,7169.67,7098.75,7104.17,7098.75z
			 M7243.16,7207.76c-6.77-10.15-12.91-19.51-19.3-28.7c-0.69-1-2.81-1.39-4.28-1.41c-11.54-0.11-23.09-0.15-34.63,0.04
			c-1.66,0.03-3.9,0.93-4.84,2.2c-3.66,4.9-6.9,10.12-10.3,15.22c-2.67,4.01-5.34,8.03-8.42,12.65
			C7189.05,7207.76,7215.58,7207.76,7243.16,7207.76z M7202.26,7045.91c-5.16,13.35-9.87,25.53-14.68,37.95c10.16,0,19.45,0,29.4,0
			C7212.11,7071.31,7207.42,7059.21,7202.26,7045.91z"/>
		<path class="st8" d="M7200.01,6916.59c-38.4,0.7-72.62,15.96-99.94,46.5c-1.53,1.71-3.56,3.96-5.48,4.09
			c-2.48,0.17-5.81-0.87-7.46-2.62c-2.61-2.77-1.96-6.66,0.78-9.24c9.38-8.87,18.18-18.64,28.64-26.04
			c61.93-43.83,147.56-33.49,197.85,23.33c0.9,1.02,1.85,2.01,2.63,3.12c2.53,3.6,2.23,8.42-0.92,10.54
			c-3.6,2.43-7.04,1.79-10.1-1.3c-5.64-5.67-10.97-11.72-17.07-16.85C7263.99,6927.13,7234.95,6917.01,7200.01,6916.59z"/>
		<path class="st9" d="M7197.5,6942.44c34.74-1.03,63.27,12.08,86.13,37.95c3.27,3.7,2.87,8.11-0.46,10.86
			c-3.17,2.62-7.36,2.03-10.8-1.82c-13.16-14.71-28.82-25.62-48.21-30c-35-7.91-64.87,1.77-89.69,27.5
			c-0.71,0.73-1.35,1.53-2.05,2.28c-3.69,4-7.95,4.74-11.19,1.95c-3.5-3.01-3.49-7.35,0.43-11.67
			c19.41-21.43,43.05-34.6,72.27-36.75C7195.13,6942.65,7196.31,6942.54,7197.5,6942.44z"/>
		<path class="st10" d="M7257.68,7011.6c-1.89,2.12-3.44,5.43-5.56,5.85c-2.62,0.52-6.62-0.47-8.45-2.34
			c-12.64-12.99-27.68-19.34-45.83-18.05c-14.62,1.03-26.54,7.5-36.76,17.81c-1.84,1.86-5.39,3.17-7.9,2.84
			c-1.97-0.26-4.75-3.3-5-5.36c-0.29-2.4,1.19-5.63,2.93-7.57c23.8-26.65,66.41-30.02,94.23-7.55c3.16,2.55,6.09,5.44,8.86,8.42
			C7255.54,7007.05,7256.24,7009.05,7257.68,7011.6z"/>
	</g>
</g>
</svg>
