<?xml version="1.0" encoding="utf-8"?>
<!-- Generator: Adobe Illustrator 24.2.3, SVG Export Plug-In . SVG Version: 6.00 Build 0)  -->
<svg version="1.1" xmlns="http://www.w3.org/2000/svg" xmlns:xlink="http://www.w3.org/1999/xlink" x="0px" y="0px"
	 viewBox="0 0 14400 14400" style="enable-background:new 0 0 14400 14400;" xml:space="preserve">
<style type="text/css">
	.st0{fill:#2E7DE8;stroke:#2E7DE8;stroke-width:3;stroke-miterlimit:10;}
	.st1{display:none;}
	.st2{display:inline;}
	.st3{fill:#FFFFFF;}
	.st4{fill:#007EC4;}
	.st5{display:inline;fill:#007EC4;}
	.st6{fill:#064487;}
	.st7{fill:#005EC4;}
	.st8{fill:#1283FF;}
	.st9{fill:#70B2F9;}
	.st10{fill:#C5E1FF;}
	.st11{fill:#034389;}
	.st12{fill:#353535;}
	.st13{fill:#2E7DE8;}
	.st14{fill:#1067C6;}
	.st15{fill:#0C4889;}
</style>
<g id="Layer_3">
	<g>
		<path class="st0" d="M6846.49,7049.48c32.36-2.03,32.34-2.02,42.88,26.31c5.55,14.92,11.2,29.81,17.84,47.46
			c7.04-14.51,13.01-26.82,18.98-39.13c5.94-12.23,11.87-24.47,18.69-38.53c12.75,26.27,24.75,51,37.7,77.66
			c7.38-19.29,14.12-36.81,20.79-54.37c7.57-19.95,7.54-19.96,29.03-19.93c3.32,0,6.64,0,11.28,0
			c-19.16,49.2-37.98,97.53-57.7,148.2c-13.94-28.82-27.02-55.84-41.07-84.87c-14.07,28.78-27.25,55.75-41.45,84.81
			C6884.09,7146.91,6865.46,7098.63,6846.49,7049.48z"/>
		<path class="st0" d="M7417.8,7190.75c0-47.24,0-94.19,0-140.64c24.93,0,49.27-0.91,73.5,0.33c15.52,0.8,27.03,9.65,30.7,25.71
			c3.71,16.23,0.99,30.62-14.7,40.28c0.68,1.03,1,2.04,1.68,2.48c17.07,10.93,22.79,23.29,19.39,42.06
			c-2.86,15.77-14.52,27.99-33.63,29.34C7469.58,7192.09,7444.18,7190.75,7417.8,7190.75z M7448.94,7132.99c0,11.42,0,21.56,0,32.08
			c11.66,0,22.64,0.49,33.56-0.14c9.76-0.56,15.96-7.42,15.93-15.98c-0.04-8.59-6.28-15.31-16.06-15.82
			C7471.45,7132.55,7460.49,7132.99,7448.94,7132.99z M7448.24,7105.46c10.63,0,19.91,0,29.19,0c9.44,0.01,14.11-5.44,14.81-14.13
			c0.69-8.6-4.03-14.46-12.44-15.2c-10.12-0.89-20.38-0.21-31-0.21c-0.22,2.48-0.52,4.4-0.54,6.33
			C7448.21,7089.52,7448.24,7096.79,7448.24,7105.46z"/>
		<path class="st0" d="M7927.54,7191.4c-9.57,0-18.4,0-28.69,0c0-16.76,0-33.33,0-49.89c0-4.67,0.17-9.35,0.02-14.01
			c-0.38-11.95-6.88-19.49-17.59-20.6c-12.17-1.27-21.05,4.66-23.21,16.83c-1.33,7.47-1.03,15.27-1.1,22.92
			c-0.15,14.61-0.04,29.22-0.04,44.62c-10.12,0-19.21,0-28.9,0c0-35.37,0-70.25,0-105.07c16.62-4.6,27.37-2.54,29.03,3.88
			c10.88-2.44,21.77-7.18,32.41-6.64c10.6,0.53,20.93,6.34,33.32,10.49c10.77-10.68,27.12-13.42,44.62-10.3
			c18.08,3.22,29.9,15.31,31.17,35.31c1.51,23.85,0.35,47.86,0.35,72.47c-9.62,0-18.74,0-29.08,0c0-21.78,0.02-43.04-0.01-64.29
			c-0.02-8.77-3.32-15.74-11.95-18.89c-8.02-2.93-16.83-2.95-22.18,3.91c-4.18,5.37-6.92,13.05-7.37,19.89
			c-1.04,15.95-0.27,32.01-0.31,48.02C7928.02,7183.62,7927.73,7187.2,7927.54,7191.4z"/>
		<path class="st0" d="M7304.58,7226.46c-9.96,0-18.52,0-27.94,0c0-46.78,0-93.59,0-140.45c16.45-4.28,26.34-2.25,29.31,6.86
			c13.97-10.99,30.36-13.78,46.26-8.71c10.5,3.35,21.18,10.53,28.38,18.91c16.15,18.79,13.84,55.31-2.01,73.62
			c-14.32,16.55-45.25,26.17-74,6.29C7304.58,7197.92,7304.58,7211.95,7304.58,7226.46z M7362.71,7138.58
			c0.06-18.22-11.86-30.68-29.5-30.84c-18.1-0.16-29.79,11.71-29.76,30.21c0.03,18.51,11.59,30.71,29.34,30.96
			C7350.5,7169.15,7362.64,7156.84,7362.71,7138.58z"/>
		<path class="st0" d="M7768.45,7183.65c-27.92,18.68-59.23,10.58-74.69-8.67c-15.72-19.56-14.64-56.95,1.66-75.56
			c17.23-19.66,51.6-23.32,71.73-6.92c6.81-16.04,19.95-4.49,30.52-8.53c0,36.52,0,71.38,0,106.15
			C7781.93,7195.1,7770.42,7192.76,7768.45,7183.65z M7710.85,7138.37c0.13,17.76,12.92,30.57,30.28,30.34
			c17.88-0.24,29.81-12.68,29.54-30.8c-0.26-17.94-12.82-30.57-30.22-30.4C7722.8,7107.69,7710.72,7120.28,7710.85,7138.37z"/>
		<path class="st0" d="M7132.41,7092.05c7.01-15.33,19.95-3.83,30.26-8.25c0,36.58,0,71.47,0,106.33
			c-15.5,4.98-27.06,2.72-29.6-6.81c-14.28,11.45-30.96,13.98-47.19,8.8c-10.2-3.26-20.56-10.34-27.53-18.52
			c-16.14-18.97-14.1-55.35,1.71-73.72C7073.72,7083.99,7103.49,7073.12,7132.41,7092.05z M7135.59,7138.59
			c0.03-18.31-11.74-30.73-29.45-31.08c-17.43-0.34-30.2,12.34-30.38,30.16c-0.17,17.65,12.37,30.77,29.67,31.04
			C7123.36,7168.98,7135.56,7156.79,7135.59,7138.59z"/>
		<path class="st0" d="M7578.82,7149.23c4.36,22.6,32.9,26.33,56.46,7.93c6.99,3.99,14.32,8.17,21.7,12.39
			c-16.32,24.77-51.8,32.35-80.18,17.89c-24.39-12.43-35.23-42.94-24.76-69.7c10.27-26.25,41.21-40.81,70.38-33.11
			c29.27,7.73,44.58,32.05,39.59,64.6C7634.52,7149.23,7606.78,7149.23,7578.82,7149.23z M7631.67,7128.49
			c-2.7-13.37-11.64-20.25-25.62-20.11c-15.04,0.15-24.2,6.88-26.8,20.11C7596.75,7128.49,7614.16,7128.49,7631.67,7128.49z"/>
		<path class="st0" d="M7257.11,7108.19c-9.48,3.96-19.61,5.68-25.85,11.54c-5.59,5.26-8.78,14.86-9.69,22.92
			c-1.52,13.5-0.67,27.32-0.22,40.98c0.22,6.69-2.25,8.9-8.67,8.51c-6.55-0.4-13.13-0.09-20.23-0.09c0-36.14,0-71.04,0-106.76
			c9.21,0,18.31,0,28.1,0c0.38,3.19,0.76,6.38,1.03,8.6c11.16-4.39,22.46-8.83,35.52-13.97
			C7257.11,7091.85,7257.11,7100.62,7257.11,7108.19z"/>
	</g>
</g>
<g id="Layer_4">
	<g>
		<path d="M6866.94,7298.74c4.62,0,8.22-0.84,10.78-2.53c2.57-1.69,3.85-4.42,3.85-8.19c0-2.17-0.42-3.99-1.24-5.45
			c-0.83-1.46-1.93-2.69-3.3-3.69s-2.94-1.86-4.71-2.56c-1.77-0.71-3.62-1.46-5.56-2.25c-2.45-0.96-4.65-1.96-6.59-2.98
			c-1.94-1.02-3.6-2.17-4.96-3.46c-1.37-1.28-2.42-2.76-3.13-4.41c-0.71-1.65-1.07-3.59-1.07-5.82c0-5.08,1.68-8.93,5.05-11.56
			c3.37-2.62,8.05-3.94,14.04-3.94c1.6,0,3.17,0.12,4.71,0.34c1.54,0.23,2.98,0.53,4.33,0.9c1.34,0.37,2.57,0.79,3.68,1.24
			c1.11,0.46,2.04,0.94,2.78,1.46l-2.06,4.88c-1.66-1.14-3.67-2.06-6.04-2.74c-2.37-0.68-4.92-1.03-7.66-1.03
			c-1.88,0-3.61,0.19-5.18,0.56c-1.57,0.37-2.92,0.97-4.07,1.8c-1.14,0.83-2.04,1.87-2.7,3.12c-0.65,1.26-0.98,2.77-0.98,4.54
			c0,1.83,0.34,3.37,1.03,4.62c0.69,1.26,1.64,2.34,2.87,3.25c1.23,0.91,2.67,1.74,4.32,2.48c1.66,0.74,3.45,1.51,5.39,2.31
			c2.34,0.97,4.55,1.94,6.63,2.91c2.08,0.97,3.89,2.11,5.43,3.43c1.54,1.31,2.77,2.91,3.68,4.79c0.91,1.89,1.37,4.2,1.37,6.94
			c0,5.36-1.87,9.39-5.61,12.07c-3.74,2.69-8.8,4.02-15.19,4.02c-2.29,0-4.37-0.15-6.25-0.43c-1.88-0.29-3.57-0.64-5.05-1.07
			c-1.48-0.43-2.74-0.87-3.77-1.33c-1.03-0.45-1.83-0.85-2.4-1.2l1.88-5.05c0.57,0.34,1.34,0.74,2.31,1.2
			c0.97,0.46,2.11,0.9,3.42,1.33c1.31,0.43,2.79,0.79,4.45,1.07C6863.12,7298.6,6864.94,7298.74,6866.94,7298.74z"/>
		<path d="M6934.82,7242.67c8.39,0,14.64,1.6,18.75,4.79c4.11,3.19,6.17,7.73,6.17,13.61c0,3.37-0.6,6.24-1.8,8.6
			c-1.2,2.37-2.91,4.28-5.14,5.74c-2.22,1.45-4.95,2.51-8.17,3.17c-3.23,0.66-6.86,0.98-10.91,0.98h-8.05v22.94h-5.82v-58.21
			c2.05-0.57,4.47-0.99,7.23-1.24C6929.84,7242.8,6932.42,7242.67,6934.82,7242.67z M6935.08,7247.72c-2.17,0-4.01,0.07-5.52,0.22
			c-1.51,0.14-2.81,0.27-3.9,0.38v26.19h7.36c3.14,0,5.98-0.18,8.52-0.56c2.54-0.37,4.71-1.06,6.51-2.05c1.8-1,3.18-2.38,4.15-4.15
			c0.97-1.77,1.46-4.02,1.46-6.76c0-2.63-0.53-4.79-1.58-6.51c-1.06-1.71-2.45-3.07-4.2-4.07c-1.74-1-3.72-1.69-5.95-2.1
			C6939.7,7247.92,6937.42,7247.72,6935.08,7247.72z"/>
		<path d="M7028.55,7302.5c-1.13-2.91-2.17-5.71-3.12-8.4s-1.86-5.31-2.72-7.86h-28.98c-0.99,2.56-1.96,5.19-2.9,7.88
			c-0.95,2.69-1.95,5.49-3.01,8.38h-6.07c2.25-6.18,4.38-11.93,6.38-17.26c2-5.34,3.97-10.38,5.9-15.14
			c1.93-4.76,3.84-9.33,5.74-13.72c1.9-4.38,3.9-8.79,5.99-13.2h5.13c2.09,4.39,4.08,8.79,5.96,13.18c1.88,4.4,3.78,8.97,5.71,13.73
			c1.93,4.76,3.89,9.81,5.88,15.15c1.99,5.34,4.17,11.09,6.56,17.26H7028.55z M7008.13,7249.86c-2.15,4.93-4.24,9.93-6.27,15
			c-2.04,5.07-4.14,10.55-6.32,16.42h25.32c-2.19-5.88-4.32-11.36-6.4-16.44C7012.39,7259.76,7010.28,7254.77,7008.13,7249.86z"/>
		<path d="M7088.81,7303.79c-3.82,0-7.37-0.69-10.65-2.06c-3.28-1.37-6.14-3.37-8.56-5.99c-2.43-2.62-4.34-5.86-5.73-9.72
			c-1.4-3.85-2.1-8.26-2.1-13.22c0-4.97,0.76-9.38,2.27-13.23s3.52-7.09,6.04-9.72c2.51-2.62,5.42-4.61,8.73-5.95
			c3.31-1.34,6.76-2.01,10.36-2.01c2.22,0,4.25,0.14,6.07,0.43c1.83,0.29,3.42,0.64,4.79,1.07s2.54,0.86,3.51,1.28
			c0.97,0.43,1.71,0.81,2.22,1.15l-1.88,5.05c-1.43-0.85-3.24-1.7-5.44-2.52c-2.2-0.83-4.92-1.24-8.17-1.24
			c-3.71,0-6.95,0.63-9.72,1.88c-2.77,1.26-5.09,3.03-6.98,5.31s-3.3,4.99-4.24,8.13c-0.94,3.14-1.41,6.62-1.41,10.44
			c0,3.94,0.47,7.49,1.41,10.65c0.94,3.17,2.33,5.86,4.15,8.09c1.82,2.22,4.07,3.94,6.72,5.14c2.65,1.2,5.7,1.8,9.12,1.8
			c3.77,0,6.92-0.36,9.46-1.07c2.54-0.71,4.46-1.44,5.78-2.18l1.63,4.96c-0.4,0.29-1.09,0.61-2.06,0.99
			c-0.97,0.37-2.2,0.76-3.68,1.15s-3.19,0.73-5.14,0.99C7093.38,7303.66,7091.21,7303.79,7088.81,7303.79z"/>
		<path d="M7137.69,7302.5v-59.32h34.24v5.05h-28.42v20.63h25.34v4.96h-25.34v23.63h30.64v5.05H7137.69z"/>
		<path d="M7285.17,7243.18v5.05h-19v54.27h-5.82v-54.27h-19v-5.05H7285.17z"/>
		<path d="M7367.69,7272.8c0,5.08-0.74,9.56-2.22,13.44c-1.49,3.88-3.5,7.12-6.04,9.72c-2.54,2.6-5.49,4.55-8.86,5.86
			c-3.37,1.31-6.94,1.97-10.7,1.97s-7.33-0.66-10.7-1.97c-3.37-1.31-6.32-3.26-8.86-5.86c-2.54-2.6-4.55-5.83-6.04-9.72
			c-1.48-3.88-2.22-8.36-2.22-13.44c0-5.08,0.74-9.55,2.22-13.4c1.48-3.85,3.5-7.07,6.04-9.67c2.54-2.6,5.49-4.55,8.86-5.86
			c3.37-1.31,6.93-1.97,10.7-1.97s7.33,0.66,10.7,1.97c3.37,1.32,6.32,3.27,8.86,5.86c2.54,2.6,4.55,5.82,6.04,9.67
			C7366.95,7263.26,7367.69,7267.72,7367.69,7272.8z M7361.53,7272.8c0-4-0.51-7.58-1.54-10.75c-1.03-3.17-2.48-5.86-4.36-8.09
			c-1.88-2.23-4.15-3.93-6.81-5.1c-2.65-1.17-5.64-1.75-8.94-1.75c-3.31,0-6.29,0.59-8.94,1.75c-2.65,1.17-4.92,2.87-6.81,5.1
			c-1.88,2.22-3.34,4.92-4.36,8.09c-1.03,3.17-1.54,6.75-1.54,10.75c0,3.99,0.52,7.57,1.54,10.74c1.03,3.17,2.48,5.86,4.36,8.09
			c1.88,2.22,4.15,3.94,6.81,5.14c2.65,1.2,5.63,1.8,8.94,1.8c3.31,0,6.29-0.6,8.94-1.8c2.65-1.2,4.92-2.91,6.81-5.14
			c1.88-2.23,3.34-4.92,4.36-8.09C7361.02,7280.38,7361.53,7276.8,7361.53,7272.8z"/>
		<path d="M7443.01,7302.5v-59.32h34.24v5.05h-28.42v20.63h25.34v4.96h-25.34v23.63h30.65v5.05H7443.01z"/>
		<path d="M7511.58,7243.18c1.71,5.08,3.37,9.89,4.97,14.42c1.6,4.54,3.18,8.93,4.73,13.18c1.55,4.25,3.11,8.42,4.7,12.5
			c1.58,4.09,3.3,8.21,5.16,12.38c1.77-4.1,3.46-8.19,5.08-12.28c1.61-4.08,3.21-8.25,4.79-12.5c1.58-4.25,3.16-8.65,4.74-13.21
			c1.58-4.56,3.23-9.39,4.94-14.49h6.17c-2.61,7.5-4.98,14.08-7.08,19.71c-2.11,5.64-4.05,10.75-5.83,15.32
			c-1.78,4.57-3.48,8.78-5.11,12.64c-1.62,3.86-3.32,7.74-5.09,11.65h-5.46c-1.73-3.95-3.43-7.86-5.08-11.71
			c-1.66-3.85-3.4-8.06-5.21-12.61c-1.81-4.56-3.77-9.66-5.85-15.31c-2.09-5.64-4.44-12.21-7.06-19.69H7511.58z"/>
		<path d="M7586.73,7302.5v-59.32h34.24v5.05h-28.42v20.63h25.34v4.96h-25.34v23.63h30.64v5.05H7586.73z"/>
		<path d="M7695.19,7260.99c0,4.45-1.17,7.96-3.51,10.53c-2.34,2.57-5.43,4.42-9.25,5.56c0.91,1.14,2.1,2.69,3.55,4.62
			c1.46,1.94,2.96,4.07,4.5,6.38c1.54,2.31,3.05,4.72,4.54,7.23c1.48,2.51,2.74,4.91,3.77,7.19h-6.25c-1.2-2.28-2.5-4.56-3.89-6.85
			c-1.4-2.28-2.82-4.5-4.28-6.63c-1.46-2.14-2.87-4.12-4.24-5.95c-1.37-1.83-2.57-3.43-3.59-4.79c-1.83,0.17-3.65,0.26-5.48,0.26
			h-9.59v23.97h-5.82v-58.21c2.06-0.57,4.47-0.99,7.23-1.24c2.77-0.25,5.32-0.38,7.66-0.38c8.16,0,14.31,1.54,18.45,4.62
			C7693.12,7250.37,7695.19,7254.94,7695.19,7260.99z M7671.22,7247.72c-2.17,0-4.07,0.07-5.69,0.22c-1.63,0.14-2.98,0.27-4.07,0.38
			v25.25h8.05c2.68,0,5.22-0.13,7.62-0.39s4.48-0.83,6.25-1.71c1.77-0.88,3.17-2.15,4.2-3.81c1.03-1.66,1.54-3.91,1.54-6.76
			c0-2.62-0.52-4.79-1.54-6.51c-1.03-1.71-2.37-3.07-4.02-4.07s-3.55-1.68-5.69-2.05
			C7675.71,7247.91,7673.5,7247.72,7671.22,7247.72z"/>
		<path d="M7743.12,7302.5v-24.39c-4.07-6.22-7.81-12.23-11.22-18.02c-3.41-5.79-6.58-11.43-9.5-16.91h6.76
			c2.4,5.02,5.05,10.11,7.94,15.28c2.89,5.16,5.91,10.09,9.05,14.76c3.03-4.68,6.01-9.6,8.92-14.76c2.92-5.17,5.6-10.26,8.07-15.28
			h6.33c-3.03,5.42-6.22,11.06-9.59,16.91c-3.37,5.85-7.02,11.8-10.96,17.85v24.57H7743.12z"/>
		<path d="M7850.04,7272.8c0,5.08-0.74,9.56-2.22,13.44c-1.49,3.88-3.5,7.12-6.04,9.72c-2.54,2.6-5.49,4.55-8.86,5.86
			c-3.37,1.31-6.94,1.97-10.7,1.97c-3.77,0-7.33-0.66-10.7-1.97c-3.37-1.31-6.32-3.26-8.86-5.86c-2.54-2.6-4.55-5.83-6.04-9.72
			c-1.48-3.88-2.22-8.36-2.22-13.44c0-5.08,0.74-9.55,2.22-13.4c1.48-3.85,3.5-7.07,6.04-9.67c2.54-2.6,5.49-4.55,8.86-5.86
			c3.37-1.31,6.93-1.97,10.7-1.97c3.77,0,7.33,0.66,10.7,1.97c3.37,1.32,6.32,3.27,8.86,5.86c2.54,2.6,4.55,5.82,6.04,9.67
			C7849.3,7263.26,7850.04,7267.72,7850.04,7272.8z M7843.87,7272.8c0-4-0.51-7.58-1.54-10.75c-1.03-3.17-2.48-5.86-4.36-8.09
			c-1.88-2.23-4.15-3.93-6.81-5.1c-2.65-1.17-5.64-1.75-8.94-1.75c-3.31,0-6.29,0.59-8.94,1.75c-2.65,1.17-4.92,2.87-6.81,5.1
			c-1.88,2.22-3.34,4.92-4.36,8.09c-1.03,3.17-1.54,6.75-1.54,10.75c0,3.99,0.52,7.57,1.54,10.74c1.03,3.17,2.48,5.86,4.36,8.09
			c1.88,2.22,4.15,3.94,6.81,5.14s5.63,1.8,8.94,1.8c3.31,0,6.29-0.6,8.94-1.8s4.92-2.91,6.81-5.14c1.88-2.23,3.34-4.92,4.36-8.09
			C7843.36,7280.38,7843.87,7276.8,7843.87,7272.8z"/>
		<path d="M7924.84,7302.5c-1.1-1.98-2.48-4.33-4.15-7.02c-1.66-2.7-3.51-5.56-5.54-8.59c-2.03-3.03-4.15-6.16-6.36-9.39
			c-2.21-3.23-4.41-6.38-6.6-9.44c-2.19-3.06-4.33-5.92-6.43-8.6c-2.1-2.67-3.96-4.98-5.59-6.92v49.97h-5.73v-59.32h4.62
			c2.91,3.25,6.04,7.01,9.36,11.27c3.33,4.26,6.59,8.6,9.79,13.02c3.2,4.42,6.18,8.74,8.96,12.96c2.77,4.22,5.05,7.9,6.82,11.03
			v-48.28h5.73v59.32H7924.84z"/>
		<path d="M7966.53,7302.5v-59.32h34.24v5.05h-28.42v20.63h25.34v4.96h-25.34v23.63H8003v5.05H7966.53z"/>
	</g>
</g>
<g id="Layer_1" class="st1">
	<g id="Layer_2" class="st2">
		<circle class="st3" cx="6592.26" cy="7003.02" r="29.1"/>
		<circle class="st3" cx="6727.13" cy="7057.47" r="29.1"/>
		<circle class="st3" cx="6782.64" cy="7192.29" r="29.1"/>
		<circle class="st3" cx="6727.13" cy="7325.19" r="29.1"/>
		<circle class="st3" cx="6593.36" cy="7380.61" r="29.1"/>
		<circle class="st3" cx="6457.44" cy="7325.19" r="29.1"/>
		<circle class="st3" cx="6403.89" cy="7192.29" r="29.1"/>
		<circle class="st3" cx="6459.32" cy="7059.4" r="29.1"/>
	</g>
	<g class="st2">
		<path class="st4" d="M6628.45,7218.46c-0.46,0.19-0.91,0.39-1.37,0.58l-1.61,0.22c-0.35-0.05-0.69-0.09-1.04-0.14
			c6.51,23.2,13,46.4,19.57,69.58c0.72,2.52-0.07,3.48-2.3,4.36c-15.78,6.2-32.15,9.33-49.08,9.3c-15.97-0.03-31.47-2.94-46.44-8.59
			c-1.58-0.6-3.12-1.32-4.71-1.99c6.86-24.24,13.7-48.39,20.54-72.57c0.02-0.09,0.05-0.17,0.07-0.26c-0.06,0.02-0.11,0.05-0.17,0.06
			c-1.07,0.29-2.14,0.29-3.21,0l-1.13-0.48c-0.11,0.38-0.22,0.76-0.33,1.14c-7.21,24.98-14.36,49.72-21.49,74.41
			c35.19,17.73,82.76,16.49,114.55-0.21c-4.54-15.44-9.17-30.94-13.66-46.49C6633.91,7237.78,6631.18,7228.15,6628.45,7218.46z"/>
		<path class="st4" d="M6705.39,7154.46c-5.07-3.64-10.8-6.96-16.74-8.67c-13.26-3.82-26.85-6.49-40.26-9.81
			c-1.45-0.36-3.24-1.7-3.76-3.02c-2.85-7.33-7.17-13.5-13.4-18.28c-16.48-12.64-35.11-15.21-54.75-10.46
			c-16.47,3.98-29.32,12.91-35.39,29.7c-0.37,1.03-2.34,1.89-3.68,2.1c-14.35,2.27-28.68,4.79-42.1,10.51
			c-6.2,2.64-12.33,6.18-17.42,10.55c-6.71,5.77-6.53,13.38,0.12,19.23c4.37,3.84,9.58,7.06,14.92,9.42
			c15.69,6.94,32.48,9.86,49.37,12.1c6.63,0.88,13.29,1.48,20.61,2.28c-0.11,0.4-0.23,0.8-0.34,1.19c0.35-0.18,0.71-0.35,1.1-0.46
			c0.54-0.07,1.07-0.14,1.61-0.22c0.67-0.03,1.31,0.11,1.92,0.34c2.46-8.67,4.91-17.34,7.37-26.03c0.25-0.04,0.89-0.22,1.52-0.22
			c10.96-0.02,21.92,0.01,32.87-0.05c1.92-0.01,3.07,0.32,3.68,2.51c2.13,7.63,4.3,15.25,6.44,22.88c0.66,0.04,1.32,0.19,1.94,0.43
			c0.32,0.1,0.64,0.2,0.95,0.31c0.57,0.21,1.16,0.45,1.72,0.74c-0.14-0.49-0.27-0.97-0.41-1.46c2.15-0.26,3.56-0.49,4.99-0.6
			c16.47-1.28,32.76-3.73,48.71-8.07c10.32-2.81,20.59-6.03,29.03-12.99C6715.35,7170.7,6715.26,7161.54,6705.39,7154.46z
			 M6594,7106.72c21.97,0.42,42.53,12.8,45.78,28.04c-31.23-3.42-62.35-3.43-93.6,0.01
			C6550.19,7118.65,6571.61,7106.29,6594,7106.72z M6693.97,7180.48c-15.34,7.14-31.78,10.3-48.39,12.61
			c-7.56,1.05-15.19,1.65-23.33,2.51c-2.23-8.44-4.43-16.79-6.74-25.55h-10.55c-10.42,0-20.85,0.06-31.27-0.05
			c-2.37-0.02-3.45,0.6-4.03,3.07c-1.73,7.41-3.78,14.75-5.81,22.53c-28.84-2.98-57.55-5.29-82.65-21.19
			c-0.08-0.61-0.16-1.21-0.24-1.82c3.2-2.15,6.25-4.6,9.64-6.4c11.43-6.09,23.93-9.01,36.54-11.06
			c44.09-7.17,88.26-7.11,132.35,0.01c12.09,1.95,24.08,4.73,35.14,10.32c3.71,1.87,7.1,4.37,10.64,6.58
			c0.04,0.57,0.08,1.15,0.11,1.72C6701.59,7176.01,6697.95,7178.62,6693.97,7180.48z M6707.68,7167.7
			c-5.65-3.22-11.14-6.36-16.63-9.49c-8.39-2.19-16.76-4.47-25.19-6.52c-4.46-1.08-9.01-1.77-12.96-2.52c0-1.85,0.12-3.55-0.14-5.18
			c-0.04-0.22-2.79-0.47-2.96-0.1c-0.63,1.36-0.69,2.98-0.98,4.56c-50.73-4.98-101.92-5.83-151.37,9.2
			c-0.98-1.47-1.71-2.92-2.82-3.97c-0.3-0.28-2.51,0.61-2.53,1.03c-0.07,1.53,0.41,3.09,0.77,5.13c-1.72,0.89-4.32,2.1-6.77,3.55
			c-2.47,1.47-4.8,3.19-7.3,4.88c-1.93-2.64-0.59-5.08,1.08-6.71c2.79-2.73,5.89-5.33,9.29-7.22c11.31-6.31,23.75-9.5,36.37-11.65
			c47.28-8.06,94.56-8.15,141.63,1.48c8.93,1.83,17.44,5.67,26.15,8.59c4.05,2.59,8.3,4.93,12.08,7.87
			C6707.47,7162.22,6708.89,7164.82,6707.68,7167.7z"/>
		<path class="st4" d="M6593.94,7137.59c1.97,3.38,1.18,5.57-2.77,6.4c-0.59-1.5-2.02-3.41-1.54-4.4
			C6590.17,7138.48,6592.43,7138.22,6593.94,7137.59z"/>
		<path class="st4" d="M6534.98,7141.84c1.21,1.84,2.61,3.03,2.49,4.04c-0.12,1.06-1.72,1.94-2.67,2.89
			c-0.98-1.07-2.52-2.04-2.74-3.25C6531.91,7144.69,6533.58,7143.52,6534.98,7141.84z"/>
		<path class="st4" d="M6686.13,7149.76c1.35,1.74,2.97,2.99,2.78,3.79c-0.29,1.21-1.86,2.11-2.88,3.14c-0.92-1-2.47-1.94-2.56-3
			C6683.38,7152.69,6684.84,7151.56,6686.13,7149.76z"/>
		<path class="st4" d="M6479.36,7298c-1.3,0.59-2.7,1.76-3.88,1.57c-0.92-0.15-1.56-2-2.32-3.09c1.18-0.8,2.31-2.13,3.55-2.25
			c1.22-0.12,2.55,1.01,3.83,1.58C6480.15,7296.55,6479.75,7297.27,6479.36,7298z"/>
		<g>
			<path class="st3" d="M6731.8,7191.14c0.08,76.69-61.66,138.53-138.41,138.62c-76.29,0.1-138.85-62.24-138.9-138.41
				c-0.05-76.19,62.33-138.54,138.69-138.63C6669.82,7052.62,6731.72,7114.43,6731.8,7191.14z"/>
			<path class="st4" d="M6593.3,7338.97c-81.51,0.16-147.74-73.92-147.82-147.42c-0.09-81.85,65.02-147.31,147.2-148
				c81.55-0.68,148.65,66.1,148.57,147.87C6741.18,7272.76,6674.95,7338.81,6593.3,7338.97z M6726.37,7191.14
				c-0.08-73.74-59.58-133.16-133.25-133.07c-73.41,0.09-133.38,60.03-133.33,133.27c0.05,73.22,60.19,133.15,133.53,133.06
				C6667.1,7324.3,6726.45,7264.86,6726.37,7191.14z"/>
			<path class="st4" d="M6439.54,7190.97c0.15,19.45-15.6,35.58-35.14,36c-19.33,0.42-36.21-16.31-36.16-35.82
				c0.05-19.28,16.26-35.5,35.6-35.62C6423.1,7155.4,6439.39,7171.58,6439.54,7190.97z M6428.34,7191.32
				c0.03-13.62-10.72-24.44-24.31-24.48c-13.68-0.03-24.39,10.64-24.42,24.32c-0.03,13.71,10.6,24.43,24.26,24.47
				C6417.48,7215.68,6428.31,7204.91,6428.34,7191.32z"/>
			<path class="st4" d="M6494.92,7057.7c-0.17,19.44-16.27,35.34-35.76,35.31c-19.79-0.04-35.7-16.34-35.43-36.33
				c0.26-19.42,16.4-34.9,36.24-34.74C6479.74,7022.1,6495.09,7037.8,6494.92,7057.7z M6458.86,7081.81
				c13.66,0.19,25.13-11.01,25.15-24.55c0.02-13.27-11.11-24.36-24.46-24.38c-13.2-0.02-24.52,11.05-24.8,24.24
				C6434.48,7070.34,6445.49,7081.62,6458.86,7081.81z"/>
			<path class="st4" d="M6628.99,7002.04c-0.03,19.51-15.94,35.27-35.63,35.3c-20.07,0.03-35.92-15.88-35.74-35.88
				c0.17-19.39,16.42-35.24,35.94-35.06C6613.06,6966.57,6629.01,6982.63,6628.99,7002.04z M6568.6,7001.6
				c-0.15,13.29,10.57,24.29,24.11,24.74c13.39,0.45,25.29-11.05,25.28-24.43c-0.01-13.17-11.19-24.23-24.58-24.31
				C6579.93,6977.51,6568.75,6988.33,6568.6,7001.6z"/>
			<path class="st4" d="M6494.92,7325.42c-0.02,19.79-15.63,35.21-35.57,35.14c-20-0.07-35.76-16.04-35.62-36.1
				c0.13-19.22,16.65-35.23,36.07-34.95C6479.24,7289.77,6494.95,7305.84,6494.92,7325.42z M6460.29,7300.8
				c-13.51-0.61-24.91,9.73-25.53,23.15c-0.62,13.31,10.49,25.12,24.11,25.64c12.87,0.5,24.42-10.04,25.12-22.92
				C6484.73,7313.11,6474.02,7301.41,6460.29,7300.8z"/>
			<path class="st4" d="M6727.18,7360.55c-19.85,0.07-35.79-15.54-35.84-35.1c-0.05-19.57,16.47-36.02,36.11-35.96
				c19.4,0.07,35.6,16.35,35.47,35.67C6762.78,7344.67,6746.82,7360.48,6727.18,7360.55z M6751.55,7325.3
				c0.13-13.78-10.41-24.49-24.16-24.55c-13.66-0.06-24.57,10.64-24.69,24.2c-0.12,13.63,10.61,24.58,24.17,24.66
				C6740.29,7349.69,6751.43,7338.72,6751.55,7325.3z"/>
			<path class="st4" d="M6727.36,7021.94c19.58,0.13,35.52,16.08,35.55,35.57c0.03,19.32-16.21,35.49-35.65,35.48
				c-19.63-0.01-36.08-16.56-35.92-36.13C6691.5,7037.31,6707.49,7021.81,6727.36,7021.94z M6751.55,7057.49
				c-0.02-13.68-11.42-24.93-24.95-24.62c-13.27,0.3-23.79,10.86-23.9,24c-0.12,13.88,10.75,24.9,24.57,24.9
				C6740.93,7081.77,6751.57,7071.13,6751.55,7057.49z"/>
			<path class="st4" d="M6557.62,7380.56c0-19.6,15.78-35.36,35.46-35.42c20.05-0.06,36.01,15.85,35.9,35.79
				c-0.1,19.31-16.39,35.25-35.91,35.15C6573.52,7415.98,6557.62,7400.06,6557.62,7380.56z M6568.6,7380.67
				c0.04,13.27,11.11,24.19,24.58,24.25c13.34,0.06,24.66-10.93,24.82-24.1c0.16-13.36-11.59-24.93-25.05-24.68
				C6579.48,7356.39,6568.56,7367.4,6568.6,7380.67z"/>
			<path class="st4" d="M6818.03,7190.92c0.11,19.89-16.14,36.31-35.7,36.08c-19.34-0.23-35.44-16.5-35.42-35.8
				c0.02-19.3,16.2-35.56,35.52-35.69C6801.74,7155.38,6817.92,7171.47,6818.03,7190.92z M6758.19,7190.94
				c-0.16,13.64,10.5,24.57,24.1,24.71c13.47,0.15,24.67-10.73,24.81-24.11c0.14-13.43-10.74-24.53-24.2-24.7
				C6769.25,7166.67,6758.35,7177.3,6758.19,7190.94z"/>
			<path class="st4" d="M6758.75,7288.22c-5.51-1.24-7.23-4.07-5.42-8.45c5.04-12.23,10.07-24.48,15.65-36.46
				c0.87-1.88,4.62-2.41,7.04-3.57c1.07,2.25,3.6,5.07,2.98,6.67c-5.02,13.03-10.55,25.88-16.18,38.67
				C6762.15,7286.58,6759.89,7287.38,6758.75,7288.22z"/>
			<path class="st4" d="M6500.58,7349.43c1.78,0.65,2.72,0.95,3.64,1.34c11.97,5.03,24.04,9.88,35.82,15.32
				c2.03,0.94,2.9,4.42,4.3,6.72c-2.43,1.22-5.47,4.06-7.19,3.4c-12.83-4.87-25.47-10.25-37.94-15.99c-1.7-0.78-2.84-4.47-2.77-6.77
				C6496.48,7352.01,6499.25,7350.64,6500.58,7349.43z"/>
			<path class="st4" d="M6404.7,7242.81c2.34-2.61,3.79-5.59,5.44-5.71c2.14-0.16,5.68,1.42,6.48,3.2
				c5.48,12.31,10.58,24.8,15.3,37.42c0.67,1.8-0.74,5.46-2.38,6.7c-1.23,0.94-5.81,0.11-6.41-1.14
				C6416.75,7270.05,6410.87,7256.58,6404.7,7242.81z"/>
			<path class="st4" d="M6781.71,7138.24c-2.32,2.62-3.62,5.37-5.39,5.72c-1.89,0.37-5.48-0.98-6.16-2.53
				c-5.55-12.62-10.74-25.41-15.6-38.31c-0.64-1.7,0.71-5.72,2.05-6.23c2-0.75,6.39-0.08,7.04,1.29
				C6769.95,7111.24,6775.66,7124.58,6781.71,7138.24z"/>
			<path class="st4" d="M6405.72,7135.03c6.31-13.72,12.09-26.74,18.44-39.47c0.7-1.4,5.32-2.3,6.92-1.37
				c1.56,0.91,2.79,4.94,2.07,6.78c-4.8,12.34-9.97,24.56-15.56,36.57c-0.9,1.93-4.59,3.65-6.85,3.49
				C6409.1,7140.91,6407.69,7137.53,6405.72,7135.03z"/>
			<path class="st4" d="M6548.03,7009.92c-2,1.57-3.77,3.67-6.03,4.63c-11.51,4.9-23.05,9.74-34.8,13.99
				c-2.28,0.82-5.54-1.08-8.35-1.72c0.94-2.52,1.2-6.56,2.92-7.32c12.55-5.57,25.3-10.75,38.24-15.36c2.07-0.74,5.38,1.98,8.11,3.09
				C6548.09,7008.14,6548.06,7009.03,6548.03,7009.92z"/>
			<path class="st4" d="M6648.44,7003.02c13.5,6.18,26.72,12.04,39.67,18.45c1.45,0.72,2.51,5.33,1.6,6.82
				c-0.97,1.59-4.97,2.85-6.83,2.13c-12.34-4.77-24.55-9.91-36.55-15.47c-1.97-0.91-3.57-4.48-3.64-6.88
				C6642.65,7006.65,6645.92,7005.12,6648.44,7003.02z"/>
			<path class="st4" d="M6645.43,7379.04c-2.58-2.41-5.72-4.12-5.57-5.45c0.28-2.44,1.97-5.84,4.01-6.77
				c6.8-3.08,14.1-5.05,21.06-7.82c5.1-2.03,9.82-5.04,14.99-6.8c2.05-0.7,5.93,0.04,7,1.54c1.03,1.44,0.27,6.3-1.02,6.92
				C6672.69,7367.05,6659.22,7372.88,6645.43,7379.04z"/>
		</g>
		<g>
			<path class="st4" d="M6579.87,7188.76c-2.81-4.21-5.5-8.18-8.13-12.19c-0.87-1.33-2.29-2.57-1.3-4.44
				c0.99-1.85,2.8-1.43,4.4-1.43c12.22-0.02,24.44-0.01,36.66-0.01c0.57,0,1.14-0.02,1.71,0.02c2.59,0.18,3.67,2.19,2.24,4.39
				c-2.51,3.88-5.12,7.69-7.69,11.53c-0.42,0.63-0.82,1.27-1.37,2.12c1.02,0.38,1.94,0.71,2.85,1.06
				c13.1,5.09,22.09,14.17,26.65,27.52c1.1,3.21-0.01,4.72-3.39,4.72c-8.67,0.01-17.35,0.05-26.02-0.04
				c-1.63-0.02-2.27,0.56-2.81,1.99c-2.48,6.56-5.08,13.08-7.62,19.62c-0.56,1.44-1.25,2.75-2.99,2.72
				c-1.73-0.03-2.38-1.37-2.94-2.8c-2.5-6.49-5.12-12.93-7.52-19.45c-0.62-1.68-1.46-2.09-3.15-2.08
				c-8.55,0.09-17.09,0.05-25.64,0.04c-3.54,0-4.64-1.46-3.48-4.81c4.58-13.25,13.52-22.32,26.54-27.4
				C6577.76,7189.5,6578.66,7189.2,6579.87,7188.76z M6629.56,7216.63c-4.57-13.16-20.05-26.17-40.76-24.13
				c-17.13,1.69-29.39,14.49-31.95,24.13C6581.04,7216.63,6605.22,7216.63,6629.56,7216.63z M6577.91,7176.12
				c2.52,3.77,4.8,7.25,7.17,10.66c0.26,0.37,1.04,0.52,1.59,0.52c4.29,0.04,8.58,0.06,12.87-0.01c0.62-0.01,1.45-0.35,1.8-0.82
				c1.36-1.82,2.56-3.76,3.83-5.65c0.99-1.49,1.99-2.98,3.13-4.7C6598.02,7176.12,6588.16,7176.12,6577.91,7176.12z
				 M6593.11,7236.26c1.92-4.96,3.67-9.49,5.45-14.1c-3.77,0-7.23,0-10.92,0C6589.45,7226.83,6591.19,7231.32,6593.11,7236.26z"/>
			<path class="st4" d="M6593.95,7284.32c14.27-0.26,26.99-5.93,37.14-17.28c0.57-0.64,1.32-1.47,2.04-1.52
				c0.92-0.06,2.16,0.32,2.77,0.98c0.97,1.03,0.73,2.47-0.29,3.44c-3.49,3.3-6.76,6.93-10.64,9.68
				c-23.01,16.29-54.83,12.44-73.52-8.67c-0.34-0.38-0.69-0.75-0.98-1.16c-0.94-1.34-0.83-3.13,0.34-3.92
				c1.34-0.9,2.61-0.66,3.75,0.48c2.1,2.11,4.08,4.35,6.34,6.26C6570.17,7280.4,6580.96,7284.16,6593.95,7284.32z"/>
			<path class="st4" d="M6594.88,7274.71c-12.91,0.38-23.51-4.49-32-14.1c-1.21-1.37-1.07-3.01,0.17-4.04
				c1.18-0.98,2.73-0.75,4.01,0.68c4.89,5.46,10.71,9.52,17.92,11.15c13,2.94,24.1-0.66,33.33-10.22c0.26-0.27,0.5-0.57,0.76-0.85
				c1.37-1.49,2.95-1.76,4.16-0.73c1.3,1.12,1.29,2.73-0.16,4.34c-7.21,7.96-16,12.86-26.86,13.66
				C6595.76,7274.63,6595.32,7274.67,6594.88,7274.71z"/>
			<path class="st4" d="M6572.52,7249.02c0.7-0.79,1.28-2.02,2.07-2.17c0.97-0.19,2.46,0.17,3.14,0.87
				c4.7,4.83,10.28,7.19,17.03,6.71c5.43-0.38,9.86-2.79,13.66-6.62c0.68-0.69,2-1.18,2.94-1.05c0.73,0.1,1.76,1.22,1.86,1.99
				c0.11,0.89-0.44,2.09-1.09,2.81c-8.84,9.9-24.68,11.16-35.01,2.81c-1.18-0.95-2.26-2.02-3.29-3.13
				C6573.31,7250.71,6573.05,7249.96,6572.52,7249.02z"/>
			<path class="st3" d="M6629.56,7216.63c-24.34,0-48.51,0-72.71,0c2.55-9.64,14.81-22.44,31.95-24.13
				C6609.51,7190.46,6624.99,7203.48,6629.56,7216.63z"/>
			<path class="st3" d="M6577.91,7176.12c10.25,0,20.1,0,30.38,0c-1.14,1.72-2.14,3.21-3.13,4.7c-1.26,1.89-2.47,3.83-3.83,5.65
				c-0.35,0.47-1.18,0.81-1.8,0.82c-4.29,0.07-8.58,0.06-12.87,0.01c-0.54-0.01-1.33-0.15-1.59-0.52
				C6582.71,7183.37,6580.43,7179.89,6577.91,7176.12z"/>
			<path class="st3" d="M6593.11,7236.26c-1.92-4.94-3.66-9.44-5.47-14.1c3.69,0,7.15,0,10.92,0
				C6596.78,7226.78,6595.03,7231.31,6593.11,7236.26z"/>
		</g>
	</g>
	<path class="st5" d="M6627.71,7216.21c-0.45,0.19-0.9,0.38-1.35,0.57l-1.58,0.21c-0.34-0.05-0.68-0.09-1.03-0.14
		c6.43,22.9,12.83,45.8,19.32,68.69c0.71,2.49-0.07,3.44-2.27,4.3c-15.58,6.12-31.74,9.21-48.45,9.18
		c-15.77-0.03-31.07-2.91-45.84-8.48c-1.56-0.59-3.08-1.3-4.65-1.97c6.77-23.93,13.52-47.77,20.28-71.64
		c0.02-0.09,0.05-0.17,0.07-0.26c-0.06,0.02-0.11,0.05-0.16,0.06c-1.06,0.28-2.11,0.28-3.17,0l-1.12-0.47
		c-0.11,0.37-0.22,0.75-0.32,1.12c-7.12,24.66-14.17,49.08-21.21,73.46c34.74,17.51,81.7,16.28,113.08-0.2
		c-4.48-15.24-9.05-30.55-13.48-45.89C6633.09,7235.28,6630.4,7225.77,6627.71,7216.21z"/>
	<path class="st5" d="M6703.66,7153.03c-5.01-3.59-10.67-6.87-16.53-8.56c-13.09-3.78-26.5-6.4-39.74-9.69
		c-1.43-0.35-3.2-1.68-3.71-2.98c-2.82-7.23-7.08-13.33-13.23-18.04c-16.27-12.48-34.66-15.01-54.05-10.33
		c-16.26,3.93-28.95,12.75-34.94,29.32c-0.37,1.02-2.31,1.87-3.63,2.08c-14.17,2.24-28.32,4.73-41.56,10.37
		c-6.12,2.61-12.17,6.1-17.2,10.42c-6.62,5.7-6.45,13.21,0.12,18.98c4.32,3.79,9.46,6.96,14.73,9.29
		c15.49,6.85,32.06,9.73,48.74,11.94c6.54,0.87,13.12,1.46,20.34,2.26c-0.11,0.39-0.23,0.79-0.34,1.18c0.35-0.17,0.7-0.35,1.08-0.46
		c0.53-0.07,1.06-0.14,1.58-0.21c0.66-0.03,1.29,0.11,1.9,0.33c2.42-8.56,4.84-17.11,7.27-25.7c0.25-0.04,0.87-0.21,1.5-0.21
		c10.82-0.02,21.63,0.01,32.45-0.05c1.9-0.01,3.03,0.31,3.64,2.48c2.1,7.53,4.25,15.06,6.35,22.59c0.65,0.04,1.3,0.19,1.91,0.42
		c0.31,0.1,0.63,0.19,0.94,0.31c0.56,0.2,1.14,0.44,1.7,0.73c-0.14-0.48-0.27-0.96-0.41-1.44c2.12-0.26,3.52-0.48,4.93-0.59
		c16.26-1.26,32.34-3.68,48.08-7.97c10.19-2.78,20.33-5.96,28.65-12.82C6713.49,7169.06,6713.4,7160.02,6703.66,7153.03z
		 M6593.69,7105.9c21.69,0.42,41.98,12.64,45.19,27.68c-30.83-3.38-61.55-3.39-92.4,0.01
		C6550.44,7117.67,6571.6,7105.48,6593.69,7105.9z M6692.39,7178.71c-15.15,7.05-31.37,10.17-47.77,12.44
		c-7.47,1.03-15,1.63-23.04,2.47c-2.2-8.34-4.37-16.57-6.66-25.22h-10.41c-10.29,0-20.58,0.06-30.87-0.05
		c-2.33-0.02-3.41,0.59-3.98,3.03c-1.7,7.32-3.73,14.56-5.73,22.24c-28.47-2.94-56.81-5.22-81.59-20.91c-0.08-0.6-0.16-1.2-0.24-1.8
		c3.16-2.12,6.17-4.54,9.52-6.32c11.28-6.02,23.62-8.89,36.07-10.92c43.53-7.08,87.13-7.02,130.66,0.01
		c11.94,1.93,23.78,4.67,34.69,10.18c3.66,1.85,7.01,4.32,10.5,6.5c0.04,0.57,0.07,1.13,0.11,1.7
		C6699.91,7174.3,6696.32,7176.88,6692.39,7178.71z M6705.92,7166.09c-5.57-3.18-10.99-6.28-16.42-9.37
		c-8.28-2.16-16.55-4.41-24.86-6.43c-4.4-1.07-8.9-1.74-12.8-2.49c0-1.83,0.12-3.5-0.14-5.11c-0.03-0.21-2.76-0.47-2.92-0.1
		c-0.62,1.35-0.69,2.95-0.97,4.5c-50.08-4.92-100.61-5.75-149.43,9.09c-0.97-1.45-1.69-2.88-2.79-3.92c-0.29-0.28-2.48,0.6-2.5,1.01
		c-0.07,1.51,0.41,3.05,0.76,5.06c-1.7,0.88-4.26,2.07-6.68,3.51c-2.44,1.45-4.74,3.15-7.2,4.81c-1.91-2.6-0.59-5.01,1.07-6.63
		c2.76-2.69,5.82-5.26,9.17-7.13c11.16-6.23,23.45-9.38,35.9-11.5c46.67-7.96,93.35-8.05,139.82,1.46c8.81,1.8,17.22,5.6,25.82,8.48
		c4,2.56,8.19,4.87,11.92,7.77C6705.71,7160.69,6707.11,7163.26,6705.92,7166.09z"/>
	<path class="st5" d="M6593.64,7136.37c1.94,3.34,1.17,5.5-2.73,6.31c-0.58-1.48-1.99-3.37-1.52-4.34
		C6589.91,7137.26,6592.15,7137,6593.64,7136.37z"/>
	<path class="st5" d="M6535.44,7140.57c1.19,1.81,2.58,2.99,2.46,3.99c-0.12,1.04-1.7,1.91-2.64,2.86c-0.97-1.06-2.49-2.01-2.71-3.2
		C6532.4,7143.38,6534.05,7142.23,6535.44,7140.57z"/>
	<path class="st5" d="M6684.65,7148.39c1.33,1.72,2.93,2.95,2.74,3.75c-0.28,1.19-1.83,2.08-2.84,3.1c-0.9-0.98-2.44-1.91-2.53-2.96
		C6681.93,7151.28,6683.37,7150.16,6684.65,7148.39z"/>
	<path class="st5" d="M6480.53,7294.73c-1.29,0.58-2.67,1.74-3.83,1.55c-0.9-0.15-1.54-1.97-2.29-3.05c1.16-0.79,2.28-2.11,3.5-2.22
		c1.2-0.11,2.52,0.99,3.79,1.56C6481.3,7293.29,6480.91,7294.01,6480.53,7294.73z"/>
</g>
<g id="Layer_5">
	<g>
		<path class="st6" d="M6602.26,7340.65c-90.85,0.18-164.63-73.4-164.74-164.29c-0.1-91.21,72.46-164.17,164.04-164.93
			c90.89-0.75,165.66,73.67,165.58,164.79C6767.06,7266.87,6693.26,7340.47,6602.26,7340.65z M6750.55,7175.9
			c-0.09-82.18-66.4-148.4-148.5-148.3c-81.81,0.1-148.64,66.9-148.58,148.52c0.05,81.6,67.08,148.39,148.81,148.28
			C6684.5,7324.3,6750.64,7258.06,6750.55,7175.9z"/>
		<path class="st7" d="M6493.43,7028.39c-0.19,21.49-17.98,39.07-39.53,39.03c-21.88-0.04-39.46-18.07-39.17-40.16
			c0.28-21.47,18.12-38.57,40.06-38.4C6476.65,6989.04,6493.62,7006.4,6493.43,7028.39z M6453.57,7055.04
			c15.1,0.21,27.78-12.17,27.8-27.14c0.02-14.67-12.28-26.93-27.03-26.95c-14.59-0.02-27.11,12.22-27.41,26.8
			C6426.61,7042.37,6438.78,7054.84,6453.57,7055.04z"/>
		<path class="st8" d="M6432.21,7175.7c0.16,21.49-17.25,39.33-38.84,39.8c-21.36,0.46-40.03-18.03-39.98-39.6
			c0.05-21.31,17.98-39.24,39.36-39.37C6414.04,7136.4,6432.04,7154.27,6432.21,7175.7z M6419.83,7176.1
			c0.03-15.06-11.85-27.02-26.88-27.06c-15.12-0.04-26.96,11.76-27,26.88c-0.03,15.15,11.72,27,26.82,27.05
			C6407.82,7203.02,6419.79,7191.12,6419.83,7176.1z"/>
		<path class="st9" d="M6493.43,7324.32c-0.03,21.88-17.28,38.92-39.32,38.84c-22.11-0.08-39.53-17.73-39.38-39.91
			c0.14-21.24,18.4-38.94,39.87-38.63C6476.09,7284.93,6493.46,7302.68,6493.43,7324.32z M6455.15,7297.11
			c-14.93-0.67-27.53,10.76-28.22,25.59c-0.68,14.71,11.59,27.77,26.65,28.35c14.22,0.55,26.99-11.1,27.77-25.33
			C6482.17,7310.72,6470.33,7297.79,6455.15,7297.11z"/>
		<path class="st10" d="M6562.73,7385.28c0-21.67,17.44-39.08,39.2-39.15c22.16-0.07,39.8,17.52,39.68,39.56
			c-0.12,21.34-18.12,38.97-39.69,38.85C6580.31,7424.43,6562.73,7406.83,6562.73,7385.28z M6574.87,7385.4
			c0.05,14.67,12.28,26.74,27.17,26.8c14.75,0.06,27.26-12.08,27.43-26.64c0.17-14.76-12.81-27.56-27.69-27.28
			C6586.89,7358.57,6574.82,7370.73,6574.87,7385.4z"/>
		<path class="st9" d="M6750.17,7363.15c-21.94,0.08-39.56-17.18-39.62-38.8c-0.06-21.64,18.2-39.82,39.91-39.75
			c21.45,0.07,39.35,18.08,39.2,39.43C6789.52,7345.61,6771.87,7363.08,6750.17,7363.15z M6777.1,7324.19
			c0.14-15.23-11.51-27.07-26.71-27.14c-15.09-0.07-27.16,11.76-27.29,26.75c-0.13,15.06,11.73,27.17,26.72,27.26
			C6764.65,7351.16,6776.96,7339.03,6777.1,7324.19z"/>
		<path class="st8" d="M6850.58,7175.65c0.12,21.98-17.84,40.14-39.46,39.88c-21.38-0.25-39.17-18.24-39.15-39.57
			c0.02-21.33,17.9-39.3,39.26-39.45C6832.58,7136.37,6850.46,7154.15,6850.58,7175.65z M6784.44,7175.68
			c-0.17,15.08,11.6,27.15,26.64,27.32c14.89,0.16,27.26-11.87,27.42-26.65c0.16-14.84-11.87-27.11-26.75-27.3
			C6796.66,7148.85,6784.61,7160.6,6784.44,7175.68z"/>
		<path class="st7" d="M6750.37,6988.87c21.65,0.15,39.26,17.77,39.3,39.32c0.04,21.36-17.92,39.23-39.41,39.22
			c-21.69-0.01-39.89-18.3-39.71-39.93C6710.72,7005.85,6728.4,6988.72,6750.37,6988.87z M6777.1,7028.16
			c-0.02-15.12-12.62-27.56-27.58-27.22c-14.67,0.34-26.29,12-26.42,26.53c-0.14,15.34,11.88,27.52,27.16,27.52
			C6765.36,7055,6777.12,7043.24,6777.1,7028.16z"/>
		<path class="st11" d="M6641.62,6966.87c-0.03,21.57-17.62,38.99-39.38,39.02c-22.19,0.03-39.7-17.56-39.5-39.67
			c0.19-21.43,18.15-38.95,39.72-38.75C6624.01,6927.66,6641.65,6945.41,6641.62,6966.87z M6574.87,6966.38
			c-0.16,14.69,11.69,26.85,26.66,27.35c14.8,0.5,27.95-12.22,27.94-27.01c-0.01-14.55-12.37-26.78-27.17-26.87
			C6587.4,6939.75,6575.04,6951.71,6574.87,6966.38z"/>
		<path class="st12" d="M6785.05,7283.2c-6.09-1.37-7.99-4.49-5.99-9.34c5.57-13.52,11.13-27.06,17.3-40.3
			c0.97-2.07,5.11-2.67,7.78-3.95c1.18,2.49,3.98,5.6,3.3,7.38c-5.55,14.41-11.66,28.61-17.89,42.74
			C6788.82,7281.39,6786.31,7282.27,6785.05,7283.2z"/>
		<path class="st12" d="M6499.68,7350.87c1.96,0.72,3.01,1.05,4.02,1.48c13.23,5.56,26.57,10.92,39.6,16.93
			c2.25,1.04,3.2,4.88,4.75,7.43c-2.69,1.35-6.05,4.48-7.95,3.76c-14.18-5.38-28.16-11.33-41.94-17.67
			c-1.88-0.86-3.14-4.94-3.06-7.48C6495.15,7353.72,6498.21,7352.21,6499.68,7350.87z"/>
		<path class="st12" d="M6393.69,7233.01c2.59-2.88,4.19-6.18,6.01-6.31c2.36-0.17,6.28,1.57,7.16,3.54
			c6.06,13.61,11.7,27.41,16.91,41.37c0.74,1.99-0.82,6.03-2.63,7.41c-1.36,1.04-6.42,0.12-7.09-1.26
			C6407.01,7263.13,6400.52,7248.23,6393.69,7233.01z"/>
		<path class="st12" d="M6810.44,7117.43c-2.57,2.89-4,5.94-5.95,6.33c-2.08,0.41-6.06-1.09-6.81-2.8
			c-6.13-13.95-11.87-28.09-17.24-42.35c-0.71-1.88,0.78-6.33,2.27-6.89c2.21-0.83,7.06-0.09,7.79,1.42
			C6797.44,7087.58,6803.75,7102.33,6810.44,7117.43z"/>
		<path class="st12" d="M6394.83,7113.88c6.98-15.17,13.37-29.56,20.38-43.63c0.77-1.54,5.88-2.54,7.65-1.51
			c1.72,1,3.08,5.46,2.29,7.5c-5.31,13.64-11.02,27.15-17.2,40.42c-0.99,2.13-5.08,4.04-7.57,3.85
			C6398.56,7120.37,6397,7116.64,6394.83,7113.88z"/>
		<path class="st12" d="M6552.14,6975.58c-2.21,1.74-4.17,4.06-6.66,5.12c-12.72,5.41-25.48,10.77-38.47,15.46
			c-2.52,0.91-6.12-1.19-9.23-1.9c1.03-2.79,1.33-7.25,3.22-8.09c13.87-6.16,27.97-11.88,42.27-16.98c2.29-0.82,5.94,2.18,8.96,3.42
			C6552.2,6973.61,6552.17,6974.59,6552.14,6975.58z"/>
		<path class="st12" d="M6663.13,6967.95c14.92,6.83,29.54,13.31,43.85,20.4c1.6,0.79,2.77,5.89,1.77,7.54
			c-1.07,1.76-5.5,3.15-7.55,2.36c-13.64-5.27-27.13-10.95-40.4-17.1c-2.17-1.01-3.94-4.96-4.03-7.61
			C6656.72,6971.96,6660.33,6970.27,6663.13,6967.95z"/>
		<path class="st12" d="M6659.79,7383.6c-2.86-2.66-6.32-4.55-6.15-6.03c0.31-2.7,2.17-6.46,4.43-7.48
			c7.52-3.41,15.58-5.58,23.28-8.65c5.63-2.24,10.86-5.57,16.57-7.52c2.27-0.77,6.56,0.05,7.74,1.7c1.14,1.59,0.3,6.96-1.13,7.65
			C6689.93,7370.34,6675.04,7376.79,6659.79,7383.6z"/>
	</g>
	<g>
		<path class="st0" d="M6634.75,7263.41c6.33,9.48,12.38,18.42,18.29,27.43c1.96,2.99,5.16,5.79,2.92,9.98
			c-2.22,4.15-6.29,3.22-9.9,3.22c-27.5,0.04-55,0.02-82.51,0.02c-1.28,0-2.57,0.04-3.85-0.05c-5.83-0.4-8.25-4.93-5.04-9.87
			c5.66-8.72,11.53-17.3,17.3-25.95c0.94-1.41,1.84-2.85,3.08-4.78c-2.29-0.86-4.36-1.6-6.4-2.39
			c-29.48-11.46-49.73-31.89-59.99-61.94c-2.47-7.23,0.03-10.62,7.62-10.63c19.52-0.02,39.05-0.12,58.57,0.09
			c3.66,0.04,5.1-1.25,6.33-4.49c5.57-14.77,11.44-29.43,17.15-44.16c1.25-3.23,2.8-6.19,6.73-6.12c3.9,0.07,5.37,3.09,6.61,6.31
			c5.63,14.6,11.52,29.1,16.94,43.78c1.4,3.78,3.28,4.72,7.08,4.67c19.24-0.2,38.47-0.1,57.71-0.09c7.96,0.01,10.44,3.29,7.83,10.83
			c-10.31,29.82-30.42,50.23-59.74,61.68C6639.5,7261.74,6637.48,7262.42,6634.75,7263.41z M6522.91,7200.67
			c10.29,29.61,45.12,58.9,91.75,54.3c38.56-3.8,66.16-32.6,71.9-54.3C6632.11,7200.67,6577.69,7200.67,6522.91,7200.67z
			 M6639.15,7291.84c-5.66-8.48-10.8-16.31-16.14-24c-0.58-0.83-2.35-1.17-3.58-1.18c-9.65-0.09-19.31-0.12-28.96,0.03
			c-1.39,0.02-3.26,0.78-4.05,1.84c-3.06,4.1-5.77,8.46-8.61,12.73c-2.24,3.36-4.47,6.71-7.04,10.58
			C6593.9,7291.84,6616.09,7291.84,6639.15,7291.84z M6604.95,7156.48c-4.32,11.16-8.26,21.35-12.28,31.74c8.49,0,16.27,0,24.58,0
			C6613.18,7177.72,6609.26,7167.6,6604.95,7156.48z"/>
		<path class="st13" d="M6603.07,7048.33c-32.11,0.58-60.74,13.35-83.58,38.88c-1.28,1.43-2.98,3.31-4.58,3.42
			c-2.07,0.14-4.86-0.73-6.24-2.19c-2.18-2.32-1.63-5.57,0.65-7.73c7.85-7.42,15.21-15.59,23.95-21.78
			c51.79-36.66,123.41-28.01,165.47,19.51c0.75,0.85,1.55,1.68,2.2,2.61c2.12,3.01,1.86,7.04-0.77,8.82
			c-3.01,2.03-5.88,1.49-8.45-1.09c-4.72-4.74-9.18-9.8-14.28-14.09C6656.57,7057.15,6632.29,7048.68,6603.07,7048.33z"/>
		<path class="st14" d="M6600.97,7069.95c29.05-0.86,52.91,10.11,72.03,31.74c2.73,3.09,2.4,6.78-0.38,9.09
			c-2.65,2.2-6.15,1.7-9.03-1.52c-11-12.3-24.1-21.43-40.32-25.09c-29.27-6.61-54.25,1.48-75.01,23c-0.59,0.61-1.13,1.28-1.71,1.91
			c-3.09,3.35-6.65,3.96-9.36,1.63c-2.92-2.51-2.91-6.15,0.36-9.76c16.23-17.92,36-28.94,60.45-30.74
			C6598.98,7070.12,6599.98,7070.03,6600.97,7069.95z"/>
		<path class="st15" d="M6651.3,7127.79c-1.58,1.78-2.88,4.54-4.65,4.89c-2.19,0.43-5.54-0.39-7.06-1.96
			c-10.57-10.87-23.15-16.17-38.33-15.1c-12.23,0.86-22.19,6.27-30.74,14.89c-1.54,1.55-4.51,2.65-6.61,2.37
			c-1.65-0.22-3.97-2.76-4.18-4.48c-0.24-2.01,1-4.71,2.45-6.33c19.91-22.29,55.54-25.11,78.8-6.32c2.64,2.14,5.09,4.55,7.41,7.04
			C6649.51,7123.98,6650.1,7125.65,6651.3,7127.79z"/>
	</g>
</g>
</svg>
